<?xml version="1.0" encoding="UTF-8" standalone="no"?><svg xmlns="http://www.w3.org/2000/svg" xmlns:xlink="http://www.w3.org/1999/xlink" contentScriptType="application/ecmascript" contentStyleType="text/css" height="478px" preserveAspectRatio="none" style="width:813px;height:478px;" version="1.1" viewBox="0 0 813 478" width="813px" zoomAndPan="magnify"><defs><filter height="300%" id="f16hyf9kwo1kxo" width="300%" x="-1" y="-1"><feGaussianBlur result="blurOut" stdDeviation="2.0"/><feColorMatrix in="blurOut" result="blurOut2" type="matrix" values="0 0 0 0 0 0 0 0 0 0 0 0 0 0 0 0 0 0 .4 0"/><feOffset dx="4.0" dy="4.0" in="blurOut2" result="blurOut3"/><feBlend in="SourceGraphic" in2="blurOut3" mode="normal"/></filter></defs><g><!--cluster ##43933--><!--cluster ##43945--><!--cluster ##43954--><!--class Role--><a target="_top" xlink:actuate="onRequest" xlink:href="../Role.html" xlink:show="new" xlink:title="Role of a party in an activity." xlink:type="simple"><rect fill="#FEFEEE" filter="url(#f16hyf9kwo1kxo)" height="44.7734" id="Role" style="stroke: #A80036; stroke-width: 1.5;" width="175" x="99.75" y="40.5"/><rect fill="#FEFEEE" height="23.9688" style="stroke: #A80036; stroke-width: 1.5;" width="175" x="99.75" y="40.5"/><text fill="#000000" font-family="sans-serif" font-size="12" lengthAdjust="spacingAndGlyphs" textLength="27" x="173.75" y="56.6387">Role</text><line style="stroke: #A80036; stroke-width: 1.5;" x1="100.75" x2="273.75" y1="64.4688" y2="64.4688"/><ellipse cx="110.75" cy="76.3711" fill="#84BE84" rx="3" ry="3" style="stroke: #038048; stroke-width: 1.0;"/><text fill="#000000" font-family="sans-serif" font-size="11" lengthAdjust="spacingAndGlyphs" textLength="53" x="119.75" y="78.6792">PartyRole</text><text fill="#000000" font-family="sans-serif" font-size="11" font-style="italic" lengthAdjust="spacingAndGlyphs" textLength="92" x="176.75" y="78.6792">(PartyRoleCode)</text></a><!--class ChargePartyRole--><a target="_top" xlink:actuate="onRequest" xlink:href="../ChargePartyRole.html" xlink:show="new" xlink:title="Role played by a party in the context of a paymentof charges." xlink:type="simple"><rect fill="#FEFECE" filter="url(#f16hyf9kwo1kxo)" height="23.9688" id="ChargePartyRole" style="stroke: #A80036; stroke-width: 1.5;" width="110" x="149" y="166"/><rect fill="#FEFECE" height="23.9688" style="stroke: #A80036; stroke-width: 1.5;" width="110" x="149" y="166"/><text fill="#000000" font-family="sans-serif" font-size="12" lengthAdjust="spacingAndGlyphs" textLength="104" x="152" y="182.1387">ChargePartyRole</text></a><!--class ChargeBearer--><a target="_top" xlink:actuate="onRequest" xlink:href="../ChargeBearer.html" xlink:show="new" xlink:title="Party(ies) liable for a charge associated with the transfer of cash." xlink:type="simple"><rect fill="#FEFEEE" filter="url(#f16hyf9kwo1kxo)" height="23.9688" id="ChargeBearer" style="stroke: #A80036; stroke-width: 1.5;" width="93" x="37.75" y="270"/><rect fill="#FEFEEE" height="23.9688" style="stroke: #A80036; stroke-width: 1.5;" width="93" x="37.75" y="270"/><text fill="#000000" font-family="sans-serif" font-size="12" lengthAdjust="spacingAndGlyphs" textLength="87" x="40.75" y="286.1387">ChargeBearer</text></a><!--class ChargeRecipient--><a target="_top" xlink:actuate="onRequest" xlink:href="../ChargeRecipient.html" xlink:show="new" xlink:title="Party entitled to the amount of money resulting from a charge." xlink:type="simple"><rect fill="#FEFEEE" filter="url(#f16hyf9kwo1kxo)" height="23.9688" id="ChargeRecipient" style="stroke: #A80036; stroke-width: 1.5;" width="109" x="165.75" y="270"/><rect fill="#FEFEEE" height="23.9688" style="stroke: #A80036; stroke-width: 1.5;" width="109" x="165.75" y="270"/><text fill="#000000" font-family="sans-serif" font-size="12" lengthAdjust="spacingAndGlyphs" textLength="103" x="168.75" y="286.1387">ChargeRecipient</text></a><!--class RolePlayer--><a target="_top" xlink:actuate="onRequest" xlink:href="../RolePlayer.html" xlink:show="new" xlink:title="Type of entity that plays a specific role in a specific context." xlink:type="simple"><rect fill="#EEEEEE" filter="url(#f16hyf9kwo1kxo)" height="23.9688" id="RolePlayer" style="stroke: #A80036; stroke-width: 1.5;" width="71" x="622.75" y="444"/><rect fill="#EEEEEE" height="23.9688" style="stroke: #A80036; stroke-width: 1.5;" width="71" x="622.75" y="444"/><text fill="#000000" font-family="sans-serif" font-size="12" lengthAdjust="spacingAndGlyphs" textLength="65" x="625.75" y="460.1387">RolePlayer</text></a><!--class ContactPersonRole--><a target="_top" xlink:actuate="onRequest" xlink:href="../ContactPersonRole.html" xlink:show="new" xlink:title="Person to be contacted in a given organisation. In the corporate action domain (including meeting notifications) , it is the contact person at the party organising the meeting, at the issuer or at an intermediary." xlink:type="simple"><rect fill="#EEEEEE" filter="url(#f16hyf9kwo1kxo)" height="23.9688" id="ContactPersonRole" style="stroke: #A80036; stroke-width: 1.5;" width="126" x="615" y="358"/><rect fill="#EEEEEE" height="23.9688" style="stroke: #A80036; stroke-width: 1.5;" width="126" x="615" y="358"/><text fill="#000000" font-family="sans-serif" font-size="12" lengthAdjust="spacingAndGlyphs" textLength="120" x="618" y="374.1387">ContactPersonRole</text></a><!--class CounterpartyRisk--><a target="_top" xlink:actuate="onRequest" xlink:href="../CounterpartyRisk.html" xlink:show="new" xlink:title="Calculation of the exposure amount that one party has vis-a-vis one counterparty or a central system, based on its credit risk." xlink:type="simple"><rect fill="#EEEEEE" filter="url(#f16hyf9kwo1kxo)" height="23.9688" id="CounterpartyRisk" style="stroke: #A80036; stroke-width: 1.5;" width="113" x="627.75" y="270"/><rect fill="#EEEEEE" height="23.9688" style="stroke: #A80036; stroke-width: 1.5;" width="113" x="627.75" y="270"/><text fill="#000000" font-family="sans-serif" font-size="12" lengthAdjust="spacingAndGlyphs" textLength="107" x="630.75" y="286.1387">CounterpartyRisk</text></a><!--class Entry--><a target="_top" xlink:actuate="onRequest" xlink:href="../Entry.html" xlink:show="new" xlink:title="Posting to an account that results in an increase or decrease to a balance." xlink:type="simple"><rect fill="#EEEEEE" filter="url(#f16hyf9kwo1kxo)" height="23.9688" id="Entry" style="stroke: #A80036; stroke-width: 1.5;" width="38" x="615" y="166"/><rect fill="#EEEEEE" height="23.9688" style="stroke: #A80036; stroke-width: 1.5;" width="38" x="615" y="166"/><text fill="#000000" font-family="sans-serif" font-size="12" lengthAdjust="spacingAndGlyphs" textLength="32" x="618" y="182.1387">Entry</text></a><!--class Adjustment--><a target="_top" xlink:actuate="onRequest" xlink:href="../Adjustment.html" xlink:show="new" xlink:title="Modification on the value of goods and / or services. For example: rebate, discount." xlink:type="simple"><rect fill="#EEEEEE" filter="url(#f16hyf9kwo1kxo)" height="23.9688" id="Adjustment" style="stroke: #A80036; stroke-width: 1.5;" width="77" x="331.75" y="270"/><rect fill="#EEEEEE" height="23.9688" style="stroke: #A80036; stroke-width: 1.5;" width="77" x="331.75" y="270"/><text fill="#000000" font-family="sans-serif" font-size="12" lengthAdjust="spacingAndGlyphs" textLength="71" x="334.75" y="286.1387">Adjustment</text></a><!--link Role to ChargePartyRole--><path d="M193.252,105.559 C196.502,127.159 200.224,151.898 202.325,165.865 " fill="none" id="Role-ChargePartyRole" style="stroke: #A80036; stroke-width: 1.0;"/><polygon fill="none" points="186.291,106.339,190.238,85.52,200.135,104.256,186.291,106.339" style="stroke: #A80036; stroke-width: 1.0;"/><!--link ChargePartyRole to ChargeBearer--><path d="M175.41,203.302 C150.546,224.436 115.661,254.088 96.9954,269.954 " fill="none" id="ChargePartyRole-ChargeBearer" style="stroke: #A80036; stroke-width: 1.0;"/><polygon fill="none" points="170.927,197.925,190.699,190.306,179.994,208.592,170.927,197.925" style="stroke: #A80036; stroke-width: 1.0;"/><!--link ChargePartyRole to ChargeRecipient--><path d="M208.905,210.267 C212.087,230.554 216.042,255.766 218.267,269.954 " fill="none" id="ChargePartyRole-ChargeRecipient" style="stroke: #A80036; stroke-width: 1.0;"/><polygon fill="none" points="201.957,211.149,205.773,190.306,215.788,208.979,201.957,211.149" style="stroke: #A80036; stroke-width: 1.0;"/><!--link ContactPersonRole to RolePlayer--><!--link CounterpartyRisk to ContactPersonRole--><!--link Entry to CounterpartyRisk--><!--link Role to RolePlayer--><path d="M274.61,80.364 C360.62,99.001 479,132.698 479,177 C479,177 479,177 479,371 C479,431.8572 564.842,448.7099 617.634,453.3199 " fill="none" id="Role-RolePlayer" style="stroke: #A80036; stroke-width: 1.0;"/><polygon fill="#A80036" points="622.635,453.7288,613.9919,449.0068,617.6517,453.3202,613.3382,456.98,622.635,453.7288" style="stroke: #A80036; stroke-width: 1.0;"/><text fill="#000000" font-family="sans-serif" font-size="13" lengthAdjust="spacingAndGlyphs" textLength="39" x="480" y="286.0669">Player</text><text fill="#000000" font-family="sans-serif" font-size="13" lengthAdjust="spacingAndGlyphs" textLength="7" x="607.7402" y="447.9585">*</text><!--link Role to ContactPersonRole--><path d="M274.377,68.815 C355.953,74.96 470.195,88.314 505,116 C550.86,152.479 527.131,186.452 555,238 C575.52,275.956 580.125,286.868 610,318 C623.704,332.281 641.714,345.597 655.757,355.039 " fill="none" id="Role-ContactPersonRole" style="stroke: #A80036; stroke-width: 1.0;"/><polygon fill="#A80036" points="659.978,357.842,654.6906,349.5328,655.8118,355.0774,650.2672,356.1987,659.978,357.842" style="stroke: #A80036; stroke-width: 1.0;"/><text fill="#000000" font-family="sans-serif" font-size="13" lengthAdjust="spacingAndGlyphs" textLength="121" x="556" y="233.0669">ContactPersonRole</text><text fill="#000000" font-family="sans-serif" font-size="13" lengthAdjust="spacingAndGlyphs" textLength="8" x="643.0642" y="346.8359">1</text><!--link Role to CounterpartyRisk--><path d="M274.255,65.482 C390.767,68.851 589.723,79.883 652,116 C683.033,133.997 697.812,218.879 698,220 C700.586,235.376 695.874,252.681 691.233,264.921 " fill="none" id="Role-CounterpartyRisk" style="stroke: #A80036; stroke-width: 1.0;"/><polygon fill="#A80036" points="689.27,269.837,696.322,262.9618,691.124,265.1934,688.8923,259.9954,689.27,269.837" style="stroke: #A80036; stroke-width: 1.0;"/><text fill="#000000" font-family="sans-serif" font-size="13" lengthAdjust="spacingAndGlyphs" textLength="109" x="692" y="182.0669">CounterpartyRisk</text><text fill="#000000" font-family="sans-serif" font-size="13" lengthAdjust="spacingAndGlyphs" textLength="24" x="661.5269" y="258.8292">0..1</text><!--link Role to Entry--><path d="M274.447,67.481 C376.041,72.873 536.344,85.954 588,116 C605.924,126.425 619.111,146.865 626.662,161.201 " fill="none" id="Role-Entry" style="stroke: #A80036; stroke-width: 1.0;"/><polygon fill="#A80036" points="629.005,165.805,628.4861,155.9698,626.7364,161.3493,621.357,159.5995,629.005,165.805" style="stroke: #A80036; stroke-width: 1.0;"/><text fill="#000000" font-family="sans-serif" font-size="13" lengthAdjust="spacingAndGlyphs" textLength="33" x="609" y="129.0669">Entry</text><text fill="#000000" font-family="sans-serif" font-size="13" lengthAdjust="spacingAndGlyphs" textLength="8" x="616.6942" y="155.0438">1</text><!--link ChargePartyRole to Adjustment--><path d="M222.081,190.11 C252.64,208.887 314.416,246.846 347.644,267.263 " fill="none" id="ChargePartyRole-Adjustment" style="stroke: #A80036; stroke-width: 1.0;"/><polygon fill="#A80036" points="351.941,269.904,346.3664,261.7847,347.6807,267.2867,342.1787,268.6011,351.941,269.904" style="stroke: #A80036; stroke-width: 1.0;"/><text fill="#000000" font-family="sans-serif" font-size="13" lengthAdjust="spacingAndGlyphs" textLength="74" x="298" y="233.0669">Adjustment</text><text fill="#000000" font-family="sans-serif" font-size="13" lengthAdjust="spacingAndGlyphs" textLength="7" x="336.1004" y="258.9192">*</text></g></svg>