<?xml version="1.0" encoding="UTF-8" standalone="no"?><svg xmlns="http://www.w3.org/2000/svg" xmlns:xlink="http://www.w3.org/1999/xlink" contentScriptType="application/ecmascript" contentStyleType="text/css" height="1284px" preserveAspectRatio="none" style="width:3155px;height:1284px;" version="1.1" viewBox="0 0 3155 1284" width="3155px" zoomAndPan="magnify"><defs><filter height="300%" id="f18mfvl2tq055l" width="300%" x="-1" y="-1"><feGaussianBlur result="blurOut" stdDeviation="2.0"/><feColorMatrix in="blurOut" result="blurOut2" type="matrix" values="0 0 0 0 0 0 0 0 0 0 0 0 0 0 0 0 0 0 .4 0"/><feOffset dx="4.0" dy="4.0" in="blurOut2" result="blurOut3"/><feBlend in="SourceGraphic" in2="blurOut3" mode="normal"/></filter></defs><g><!--cluster ##36416--><!--cluster ##36437--><!--class Document--><a target="_top" xlink:actuate="onRequest" xlink:href="../Document.html" xlink:show="new" xlink:title="General information that unambiguously identifies a document, such as identification number and issue date time." xlink:type="simple"><rect fill="#FEFECE" filter="url(#f18mfvl2tq055l)" height="172.8203" id="Document" style="stroke: #A80036; stroke-width: 1.5;" width="249" x="1641.75" y="40.5"/><rect fill="#FEFECE" height="23.9688" style="stroke: #A80036; stroke-width: 1.5;" width="249" x="1641.75" y="40.5"/><text fill="#000000" font-family="sans-serif" font-size="12" lengthAdjust="spacingAndGlyphs" textLength="64" x="1734.25" y="56.6387">Document</text><line style="stroke: #A80036; stroke-width: 1.5;" x1="1642.75" x2="1889.75" y1="64.4688" y2="64.4688"/><ellipse cx="1652.75" cy="76.3711" fill="#84BE84" rx="3" ry="3" style="stroke: #038048; stroke-width: 1.0;"/><text fill="#000000" font-family="sans-serif" font-size="11" lengthAdjust="spacingAndGlyphs" textLength="57" x="1661.75" y="78.6792">IssueDate</text><text fill="#000000" font-family="sans-serif" font-size="11" font-style="italic" lengthAdjust="spacingAndGlyphs" textLength="81" x="1722.75" y="78.6792">(ISODateTime)</text><ellipse cx="1652.75" cy="89.1758" fill="#84BE84" rx="3" ry="3" style="stroke: #038048; stroke-width: 1.0;"/><text fill="#000000" font-family="sans-serif" font-size="11" lengthAdjust="spacingAndGlyphs" textLength="80" x="1661.75" y="91.4839">CopyDuplicate</text><text fill="#000000" font-family="sans-serif" font-size="11" font-style="italic" lengthAdjust="spacingAndGlyphs" textLength="118" x="1745.75" y="91.4839">(CopyDuplicateCode)</text><ellipse cx="1652.75" cy="101.9805" fill="#84BE84" rx="3" ry="3" style="stroke: #038048; stroke-width: 1.0;"/><text fill="#000000" font-family="sans-serif" font-size="11" lengthAdjust="spacingAndGlyphs" textLength="27" x="1661.75" y="104.2886">Type</text><text fill="#000000" font-family="sans-serif" font-size="11" font-style="italic" lengthAdjust="spacingAndGlyphs" textLength="122" x="1692.75" y="104.2886">(DocumentTypeCode)</text><ellipse cx="1652.75" cy="114.7852" fill="#84BE84" rx="3" ry="3" style="stroke: #038048; stroke-width: 1.0;"/><text fill="#000000" font-family="sans-serif" font-size="11" lengthAdjust="spacingAndGlyphs" textLength="43" x="1661.75" y="117.0933">Amount</text><text fill="#000000" font-family="sans-serif" font-size="11" font-style="italic" lengthAdjust="spacingAndGlyphs" textLength="161" x="1708.75" y="117.0933">(ActiveCurrencyAndAmount)</text><ellipse cx="1652.75" cy="127.5898" fill="#84BE84" rx="3" ry="3" style="stroke: #038048; stroke-width: 1.0;"/><text fill="#000000" font-family="sans-serif" font-size="11" lengthAdjust="spacingAndGlyphs" textLength="100" x="1661.75" y="129.8979">DocumentVersion</text><text fill="#000000" font-family="sans-serif" font-size="11" font-style="italic" lengthAdjust="spacingAndGlyphs" textLength="53" x="1765.75" y="129.8979">(Number)</text><ellipse cx="1652.75" cy="140.3945" fill="#84BE84" rx="3" ry="3" style="stroke: #038048; stroke-width: 1.0;"/><text fill="#000000" font-family="sans-serif" font-size="11" lengthAdjust="spacingAndGlyphs" textLength="37" x="1661.75" y="142.7026">Status</text><text fill="#000000" font-family="sans-serif" font-size="11" font-style="italic" lengthAdjust="spacingAndGlyphs" textLength="77" x="1702.75" y="142.7026">(Max140Text)</text><ellipse cx="1652.75" cy="153.1992" fill="#84BE84" rx="3" ry="3" style="stroke: #038048; stroke-width: 1.0;"/><text fill="#000000" font-family="sans-serif" font-size="11" lengthAdjust="spacingAndGlyphs" textLength="72" x="1661.75" y="155.5073">DataSetType</text><text fill="#000000" font-family="sans-serif" font-size="11" font-style="italic" lengthAdjust="spacingAndGlyphs" textLength="109" x="1737.75" y="155.5073">(DataSetTypeCode)</text><ellipse cx="1652.75" cy="166.0039" fill="#84BE84" rx="3" ry="3" style="stroke: #038048; stroke-width: 1.0;"/><text fill="#000000" font-family="sans-serif" font-size="11" lengthAdjust="spacingAndGlyphs" textLength="88" x="1661.75" y="168.312">SignedIndicator</text><text fill="#000000" font-family="sans-serif" font-size="11" font-style="italic" lengthAdjust="spacingAndGlyphs" textLength="92" x="1753.75" y="168.312">(YesNoIndicator)</text><ellipse cx="1652.75" cy="178.8086" fill="#84BE84" rx="3" ry="3" style="stroke: #038048; stroke-width: 1.0;"/><text fill="#000000" font-family="sans-serif" font-size="11" lengthAdjust="spacingAndGlyphs" textLength="93" x="1661.75" y="181.1167">RemittedAmount</text><text fill="#000000" font-family="sans-serif" font-size="11" font-style="italic" lengthAdjust="spacingAndGlyphs" textLength="126" x="1758.75" y="181.1167">(CurrencyAndAmount)</text><ellipse cx="1652.75" cy="191.6133" fill="#84BE84" rx="3" ry="3" style="stroke: #038048; stroke-width: 1.0;"/><text fill="#000000" font-family="sans-serif" font-size="11" lengthAdjust="spacingAndGlyphs" textLength="55" x="1661.75" y="193.9214">Language</text><text fill="#000000" font-family="sans-serif" font-size="11" font-style="italic" lengthAdjust="spacingAndGlyphs" textLength="92" x="1720.75" y="193.9214">(LanguageCode)</text><ellipse cx="1652.75" cy="204.418" fill="#84BE84" rx="3" ry="3" style="stroke: #038048; stroke-width: 1.0;"/><text fill="#000000" font-family="sans-serif" font-size="11" lengthAdjust="spacingAndGlyphs" textLength="47" x="1661.75" y="206.7261">Purpose</text><text fill="#000000" font-family="sans-serif" font-size="11" font-style="italic" lengthAdjust="spacingAndGlyphs" textLength="70" x="1712.75" y="206.7261">(Max35Text)</text></a><!--class PrivateCertificate--><a target="_top" xlink:actuate="onRequest" xlink:href="../PrivateCertificate.html" xlink:show="new" xlink:title="Specifies the parameters associated with the production of a certificate to identify the profile of a customer." xlink:type="simple"><rect fill="#FEFEEE" filter="url(#f18mfvl2tq055l)" height="23.9688" id="PrivateCertificate" style="stroke: #A80036; stroke-width: 1.5;" width="113" x="1036.75" y="292"/><rect fill="#FEFEEE" height="23.9688" style="stroke: #A80036; stroke-width: 1.5;" width="113" x="1036.75" y="292"/><text fill="#000000" font-family="sans-serif" font-size="12" lengthAdjust="spacingAndGlyphs" textLength="107" x="1039.75" y="308.1387">PrivateCertificate</text></a><!--class InsuranceCertificate--><a target="_top" xlink:actuate="onRequest" xlink:href="../InsuranceCertificate.html" xlink:show="new" xlink:title="Formal document used to record a fact and used as proof of the fact that goods have been insured under an insurance policy." xlink:type="simple"><rect fill="#FEFEEE" filter="url(#f18mfvl2tq055l)" height="23.9688" id="InsuranceCertificate" style="stroke: #A80036; stroke-width: 1.5;" width="132" x="1185" y="292"/><rect fill="#FEFEEE" height="23.9688" style="stroke: #A80036; stroke-width: 1.5;" width="132" x="1185" y="292"/><text fill="#000000" font-family="sans-serif" font-size="12" lengthAdjust="spacingAndGlyphs" textLength="126" x="1188" y="308.1387">InsuranceCertificate</text></a><!--class SecurityCertificate--><a target="_top" xlink:actuate="onRequest" xlink:href="../SecurityCertificate.html" xlink:show="new" xlink:title="Certificate linked to a digital signature." xlink:type="simple"><rect fill="#FEFEEE" filter="url(#f18mfvl2tq055l)" height="23.9688" id="SecurityCertificate" style="stroke: #A80036; stroke-width: 1.5;" width="120" x="1352.5" y="292"/><rect fill="#FEFEEE" height="23.9688" style="stroke: #A80036; stroke-width: 1.5;" width="120" x="1352.5" y="292"/><text fill="#000000" font-family="sans-serif" font-size="12" lengthAdjust="spacingAndGlyphs" textLength="114" x="1355.5" y="308.1387">SecurityCertificate</text></a><!--class TradeCertificate--><a target="_top" xlink:actuate="onRequest" xlink:href="../TradeCertificate.html" xlink:show="new" xlink:title="Formal document used to record a fact and used as proof of the fact, in the context of a commercial trade transaction." xlink:type="simple"><rect fill="#FEFEEE" filter="url(#f18mfvl2tq055l)" height="23.9688" id="TradeCertificate" style="stroke: #A80036; stroke-width: 1.5;" width="106" x="1507.5" y="292"/><rect fill="#FEFEEE" height="23.9688" style="stroke: #A80036; stroke-width: 1.5;" width="106" x="1507.5" y="292"/><text fill="#000000" font-family="sans-serif" font-size="12" lengthAdjust="spacingAndGlyphs" textLength="100" x="1510.5" y="308.1387">TradeCertificate</text></a><!--class Assessment--><a target="_top" xlink:actuate="onRequest" xlink:href="../Assessment.html" xlink:show="new" xlink:title="Assessment for the components of a system." xlink:type="simple"><rect fill="#FEFEEE" filter="url(#f18mfvl2tq055l)" height="23.9688" id="Assessment" style="stroke: #A80036; stroke-width: 1.5;" width="82" x="1648" y="292"/><rect fill="#FEFEEE" height="23.9688" style="stroke: #A80036; stroke-width: 1.5;" width="82" x="1648" y="292"/><text fill="#000000" font-family="sans-serif" font-size="12" lengthAdjust="spacingAndGlyphs" textLength="76" x="1651" y="308.1387">Assessment</text></a><!--class FinancialDocument--><a target="_top" xlink:actuate="onRequest" xlink:href="../FinancialDocument.html" xlink:show="new" xlink:title="Type of document used in relation with financial transactions." xlink:type="simple"><rect fill="#FEFEEE" filter="url(#f18mfvl2tq055l)" height="23.9688" id="FinancialDocument" style="stroke: #A80036; stroke-width: 1.5;" width="125" x="1765.75" y="292"/><rect fill="#FEFEEE" height="23.9688" style="stroke: #A80036; stroke-width: 1.5;" width="125" x="1765.75" y="292"/><text fill="#000000" font-family="sans-serif" font-size="12" lengthAdjust="spacingAndGlyphs" textLength="119" x="1768.75" y="308.1387">FinancialDocument</text></a><!--class ContactPoint--><a target="_top" xlink:actuate="onRequest" xlink:href="../ContactPoint.html" xlink:show="new" xlink:title="Number, physical or virtual address, used for communication." xlink:type="simple"><rect fill="#EEEEEE" filter="url(#f18mfvl2tq055l)" height="23.9688" id="ContactPoint" style="stroke: #A80036; stroke-width: 1.5;" width="87" x="634.75" y="115"/><rect fill="#EEEEEE" height="23.9688" style="stroke: #A80036; stroke-width: 1.5;" width="87" x="634.75" y="115"/><text fill="#000000" font-family="sans-serif" font-size="12" lengthAdjust="spacingAndGlyphs" textLength="81" x="637.75" y="131.1387">ContactPoint</text></a><!--class PaymentObligation--><a target="_top" xlink:actuate="onRequest" xlink:href="../PaymentObligation.html" xlink:show="new" xlink:title="Obligation for the debtor to pay the creditor an amount of cash." xlink:type="simple"><rect fill="#EEEEEE" filter="url(#f18mfvl2tq055l)" height="23.9688" id="PaymentObligation" style="stroke: #A80036; stroke-width: 1.5;" width="123" x="596.75" y="292"/><rect fill="#EEEEEE" height="23.9688" style="stroke: #A80036; stroke-width: 1.5;" width="123" x="596.75" y="292"/><text fill="#000000" font-family="sans-serif" font-size="12" lengthAdjust="spacingAndGlyphs" textLength="117" x="599.75" y="308.1387">PaymentObligation</text></a><!--class Agreement--><a target="_top" xlink:actuate="onRequest" xlink:href="../Agreement.html" xlink:show="new" xlink:title="Contractual details related to an agreement between parties." xlink:type="simple"><rect fill="#EEEEEE" filter="url(#f18mfvl2tq055l)" height="23.9688" id="Agreement" style="stroke: #A80036; stroke-width: 1.5;" width="75" x="160.75" y="1250"/><rect fill="#EEEEEE" height="23.9688" style="stroke: #A80036; stroke-width: 1.5;" width="75" x="160.75" y="1250"/><text fill="#000000" font-family="sans-serif" font-size="12" lengthAdjust="spacingAndGlyphs" textLength="69" x="163.75" y="1266.1387">Agreement</text></a><!--class Location--><a target="_top" xlink:actuate="onRequest" xlink:href="../Location.html" xlink:show="new" xlink:title="Specifies a place." xlink:type="simple"><rect fill="#EEEEEE" filter="url(#f18mfvl2tq055l)" height="23.9688" id="Location" style="stroke: #A80036; stroke-width: 1.5;" width="59" x="527.75" y="1164"/><rect fill="#EEEEEE" height="23.9688" style="stroke: #A80036; stroke-width: 1.5;" width="59" x="527.75" y="1164"/><text fill="#000000" font-family="sans-serif" font-size="12" lengthAdjust="spacingAndGlyphs" textLength="53" x="530.75" y="1180.1387">Location</text></a><!--class Reconciliation--><a target="_top" xlink:actuate="onRequest" xlink:href="../Reconciliation.html" xlink:show="new" xlink:title="Process of matching different documents submitted by parties to a trade." xlink:type="simple"><rect fill="#EEEEEE" filter="url(#f18mfvl2tq055l)" height="23.9688" id="Reconciliation" style="stroke: #A80036; stroke-width: 1.5;" width="93" x="887.75" y="1078"/><rect fill="#EEEEEE" height="23.9688" style="stroke: #A80036; stroke-width: 1.5;" width="93" x="887.75" y="1078"/><text fill="#000000" font-family="sans-serif" font-size="12" lengthAdjust="spacingAndGlyphs" textLength="87" x="890.75" y="1094.1387">Reconciliation</text></a><!--class LetterOfCredit--><a target="_top" xlink:actuate="onRequest" xlink:href="../LetterOfCredit.html" xlink:show="new" xlink:title="Instrument issued by a bank substituting its name and credit standing for that of its customer. A letter of credit is a written undertaking of the bank, issued for the account of a customer (the applicant), to honour a demand for payment, upon the beneficiary's compliance with the terms and conditions set forth in the undertaking." xlink:type="simple"><rect fill="#EEEEEE" filter="url(#f18mfvl2tq055l)" height="23.9688" id="LetterOfCredit" style="stroke: #A80036; stroke-width: 1.5;" width="93" x="887.75" y="992"/><rect fill="#EEEEEE" height="23.9688" style="stroke: #A80036; stroke-width: 1.5;" width="93" x="887.75" y="992"/><text fill="#000000" font-family="sans-serif" font-size="12" lengthAdjust="spacingAndGlyphs" textLength="87" x="890.75" y="1008.1387">LetterOfCredit</text></a><!--class DocumentPartyRole--><a target="_top" xlink:actuate="onRequest" xlink:href="../DocumentPartyRole.html" xlink:show="new" xlink:title="Role played by a party in the context of a document." xlink:type="simple"><rect fill="#EEEEEE" filter="url(#f18mfvl2tq055l)" height="23.9688" id="DocumentPartyRole" style="stroke: #A80036; stroke-width: 1.5;" width="129" x="850.75" y="906"/><rect fill="#EEEEEE" height="23.9688" style="stroke: #A80036; stroke-width: 1.5;" width="129" x="850.75" y="906"/><text fill="#000000" font-family="sans-serif" font-size="12" lengthAdjust="spacingAndGlyphs" textLength="123" x="853.75" y="922.1387">DocumentPartyRole</text></a><!--class Transport--><a target="_top" xlink:actuate="onRequest" xlink:href="../Transport.html" xlink:show="new" xlink:title="Moving of goods or people from one place to another by vehicle." xlink:type="simple"><rect fill="#EEEEEE" filter="url(#f18mfvl2tq055l)" height="23.9688" id="Transport" style="stroke: #A80036; stroke-width: 1.5;" width="67" x="881.75" y="804"/><rect fill="#EEEEEE" height="23.9688" style="stroke: #A80036; stroke-width: 1.5;" width="67" x="881.75" y="804"/><text fill="#000000" font-family="sans-serif" font-size="12" lengthAdjust="spacingAndGlyphs" textLength="61" x="884.75" y="820.1387">Transport</text></a><!--class Guarantee--><a target="_top" xlink:actuate="onRequest" xlink:href="../Guarantee.html" xlink:show="new" xlink:title="Partial or full coverage of amounts by a party other than the debtor." xlink:type="simple"><rect fill="#EEEEEE" filter="url(#f18mfvl2tq055l)" height="23.9688" id="Guarantee" style="stroke: #A80036; stroke-width: 1.5;" width="73" x="905.75" y="702"/><rect fill="#EEEEEE" height="23.9688" style="stroke: #A80036; stroke-width: 1.5;" width="73" x="905.75" y="702"/><text fill="#000000" font-family="sans-serif" font-size="12" lengthAdjust="spacingAndGlyphs" textLength="67" x="908.75" y="718.1387">Guarantee</text></a><!--class GenericIdentification--><a target="_top" xlink:actuate="onRequest" xlink:href="../GenericIdentification.html" xlink:show="new" xlink:title="Information related to a non-standardised identification, such as a proprietary party identification or account identification." xlink:type="simple"><rect fill="#EEEEEE" filter="url(#f18mfvl2tq055l)" height="23.9688" id="GenericIdentification" style="stroke: #A80036; stroke-width: 1.5;" width="135" x="829.75" y="600"/><rect fill="#EEEEEE" height="23.9688" style="stroke: #A80036; stroke-width: 1.5;" width="135" x="829.75" y="600"/><text fill="#000000" font-family="sans-serif" font-size="12" lengthAdjust="spacingAndGlyphs" textLength="129" x="832.75" y="616.1387">GenericIdentification</text></a><!--class Evidence--><a target="_top" xlink:actuate="onRequest" xlink:href="../Evidence.html" xlink:show="new" xlink:title="Element such as signature that can be used to prove a fact." xlink:type="simple"><rect fill="#EEEEEE" filter="url(#f18mfvl2tq055l)" height="23.9688" id="Evidence" style="stroke: #A80036; stroke-width: 1.5;" width="62" x="901.5" y="498"/><rect fill="#EEEEEE" height="23.9688" style="stroke: #A80036; stroke-width: 1.5;" width="62" x="901.5" y="498"/><text fill="#000000" font-family="sans-serif" font-size="12" lengthAdjust="spacingAndGlyphs" textLength="56" x="904.5" y="514.1387">Evidence</text></a><!--class CommercialTrade--><a target="_top" xlink:actuate="onRequest" xlink:href="../CommercialTrade.html" xlink:show="new" xlink:title="Commercial details of a trade transaction between a buyer and a seller." xlink:type="simple"><rect fill="#EEEEEE" filter="url(#f18mfvl2tq055l)" height="23.9688" id="CommercialTrade" style="stroke: #A80036; stroke-width: 1.5;" width="114" x="601" y="396"/><rect fill="#EEEEEE" height="23.9688" style="stroke: #A80036; stroke-width: 1.5;" width="114" x="601" y="396"/><text fill="#000000" font-family="sans-serif" font-size="12" lengthAdjust="spacingAndGlyphs" textLength="108" x="604" y="412.1387">CommercialTrade</text></a><!--class Presentation--><a target="_top" xlink:actuate="onRequest" xlink:href="../Presentation.html" xlink:show="new" xlink:title="Presentation of documents." xlink:type="simple"><rect fill="#EEEEEE" filter="url(#f18mfvl2tq055l)" height="23.9688" id="Presentation" style="stroke: #A80036; stroke-width: 1.5;" width="87" x="759.75" y="804"/><rect fill="#EEEEEE" height="23.9688" style="stroke: #A80036; stroke-width: 1.5;" width="87" x="759.75" y="804"/><text fill="#000000" font-family="sans-serif" font-size="12" lengthAdjust="spacingAndGlyphs" textLength="81" x="762.75" y="820.1387">Presentation</text></a><!--class RegisteredContract--><a target="_top" xlink:actuate="onRequest" xlink:href="../RegisteredContract.html" xlink:show="new" xlink:title="Contract registered for regulatory purpose by a registration agent for the journaling of payments made against the contract." xlink:type="simple"><rect fill="#EEEEEE" filter="url(#f18mfvl2tq055l)" height="23.9688" id="RegisteredContract" style="stroke: #A80036; stroke-width: 1.5;" width="128" x="742" y="702"/><rect fill="#EEEEEE" height="23.9688" style="stroke: #A80036; stroke-width: 1.5;" width="128" x="742" y="702"/><text fill="#000000" font-family="sans-serif" font-size="12" lengthAdjust="spacingAndGlyphs" textLength="122" x="745" y="718.1387">RegisteredContract</text></a><!--link Document to PrivateCertificate--><path d="M1622.01,165.44 C1467.41,205.64 1231.1,267.09 1135.42,291.97 " fill="none" id="Document-PrivateCertificate" style="stroke: #A80036; stroke-width: 1.0;"/><polygon fill="none" points="1620.27,158.66,1641.38,160.4,1623.79,172.21,1620.27,158.66" style="stroke: #A80036; stroke-width: 1.0;"/><!--link Document to InsuranceCertificate--><path d="M1622.56,176.74 C1505.86,216.4 1349.99,269.36 1283.39,291.99 " fill="none" id="Document-InsuranceCertificate" style="stroke: #A80036; stroke-width: 1.0;"/><polygon fill="none" points="1620.47,170.06,1641.66,170.25,1624.98,183.31,1620.47,170.06" style="stroke: #A80036; stroke-width: 1.0;"/><!--link Document to SecurityCertificate--><path d="M1623.67,198.36 C1552,233.79 1472.44,273.12 1434.51,291.87 " fill="none" id="Document-SecurityCertificate" style="stroke: #A80036; stroke-width: 1.0;"/><polygon fill="none" points="1620.66,192.04,1641.69,189.45,1626.86,204.59,1620.66,192.04" style="stroke: #A80036; stroke-width: 1.0;"/><!--link Document to TradeCertificate--><path d="M1649.83,226.69 C1618.87,252.99 1589.51,277.93 1573.22,291.77 " fill="none" id="Document-TradeCertificate" style="stroke: #A80036; stroke-width: 1.0;"/><polygon fill="none" points="1645.34,221.32,1665.11,213.71,1654.4,231.99,1645.34,221.32" style="stroke: #A80036; stroke-width: 1.0;"/><!--link Document to Assessment--><path d="M1720.22,232.05 C1709.53,256.34 1699.62,278.87 1693.94,291.77 " fill="none" id="Document-Assessment" style="stroke: #A80036; stroke-width: 1.0;"/><polygon fill="none" points="1713.83,229.19,1728.29,213.71,1726.64,234.83,1713.83,229.19" style="stroke: #A80036; stroke-width: 1.0;"/><!--link Document to FinancialDocument--><path d="M1803.11,232.76 C1811.63,256.78 1819.5,279 1824.02,291.77 " fill="none" id="Document-FinancialDocument" style="stroke: #A80036; stroke-width: 1.0;"/><polygon fill="none" points="1796.45,234.9,1796.36,213.71,1809.64,230.22,1796.45,234.9" style="stroke: #A80036; stroke-width: 1.0;"/><!--link PaymentObligation to ContactPoint--><!--link ContactPoint to PaymentObligation--><path d="M676.718,139.21 C673.298,169.15 663.937,251.05 659.898,286.4 " fill="none" id="ContactPoint-PaymentObligation" style="stroke: #A80036; stroke-width: 1.0;"/><polygon fill="#A80036" points="659.297,291.65,664.2753,283.152,659.8543,286.6812,656.3251,282.2602,659.297,291.65" style="stroke: #A80036; stroke-width: 1.0;"/><text fill="#000000" font-family="sans-serif" font-size="13" lengthAdjust="spacingAndGlyphs" textLength="178" x="666" y="257.0669">RemittanceRelatedPayment</text><text fill="#000000" font-family="sans-serif" font-size="13" lengthAdjust="spacingAndGlyphs" textLength="24" x="630.3376" y="280.8375">0..1</text><!--link Agreement to PaymentObligation--><!--link Location to Agreement--><!--link Reconciliation to Location--><!--link LetterOfCredit to Reconciliation--><!--link DocumentPartyRole to LetterOfCredit--><!--link Transport to DocumentPartyRole--><!--link Guarantee to Transport--><!--link GenericIdentification to Guarantee--><!--link Evidence to GenericIdentification--><!--link CommercialTrade to Evidence--><!--link Presentation to CommercialTrade--><!--link RegisteredContract to Presentation--><!--link Document to ContactPoint--><path d="M1641.65,127 C1402.17,127 886.494,127 726.411,127 " fill="none" id="Document-ContactPoint" style="stroke: #A80036; stroke-width: 1.0;"/><polygon fill="#A80036" points="721.322,127,730.322,131,726.322,127,730.322,123,721.322,127" style="stroke: #A80036; stroke-width: 1.0;"/><text fill="#000000" font-family="sans-serif" font-size="13" lengthAdjust="spacingAndGlyphs" textLength="99" x="1131.25" y="119.0669">PlaceOfStorage</text><text fill="#000000" font-family="sans-serif" font-size="13" lengthAdjust="spacingAndGlyphs" textLength="7" x="729.6176" y="121.5674">*</text><!--link Document to PaymentObligation--><path d="M1641.59,147.65 C1406.63,184.76 905.021,263.99 724.476,292.5 " fill="none" id="Document-PaymentObligation" style="stroke: #A80036; stroke-width: 1.0;"/><polygon fill="#A80036" points="719.489,293.29,729.0025,295.8382,724.4279,292.5106,727.7555,287.936,719.489,293.29" style="stroke: #A80036; stroke-width: 1.0;"/><text fill="#000000" font-family="sans-serif" font-size="13" lengthAdjust="spacingAndGlyphs" textLength="121" x="1018" y="257.0669">PaymentObligation</text><text fill="#000000" font-family="sans-serif" font-size="13" lengthAdjust="spacingAndGlyphs" textLength="24" x="727.9573" y="287.1452">0..1</text><!--link Document to Agreement--><path d="M1890.44,131.77 C2216.38,143.28 3070,184.72 3070,303 C3070,303 3070,303 3070,1177 C3070,1251.0705 596.342,1260.0061 240.448,1260.9084 " fill="none" id="Document-Agreement" style="stroke: #A80036; stroke-width: 1.0;"/><polygon fill="#A80036" points="235.363,1260.9211,244.3721,1264.9005,240.363,1260.9097,244.3538,1256.9005,235.363,1260.9211" style="stroke: #A80036; stroke-width: 1.0;"/><text fill="#000000" font-family="sans-serif" font-size="13" lengthAdjust="spacingAndGlyphs" textLength="72" x="3071" y="769.0669">Agreement</text><text fill="#000000" font-family="sans-serif" font-size="13" lengthAdjust="spacingAndGlyphs" textLength="7" x="243.7394" y="1255.0293">*</text><!--link Document to Location--><path d="M1890.34,133.77 C2191.04,149.37 2933,198.45 2933,303 C2933,303 2933,303 2933,1091 C2933,1152.296 886.153,1172.171 592.032,1174.711 " fill="none" id="Document-Location" style="stroke: #A80036; stroke-width: 1.0;"/><polygon fill="#A80036" points="586.611,1174.757,595.645,1178.6797,591.6108,1174.7141,595.5764,1170.68,586.611,1174.757" style="stroke: #A80036; stroke-width: 1.0;"/><text fill="#000000" font-family="sans-serif" font-size="13" lengthAdjust="spacingAndGlyphs" textLength="81" x="2934" y="718.0669">PlaceOfIssue</text><text fill="#000000" font-family="sans-serif" font-size="13" lengthAdjust="spacingAndGlyphs" textLength="24" x="594.7539" y="1168.9219">0..1</text><!--link Document to Reconciliation--><path d="M1890.39,135 C2177.5,152.83 2862,205.54 2862,303 C2862,303 2862,303 2862,562 C2862,607.518 2830.35,610.485 2817,654 C2789.08,744.974 2787,770.839 2787,866 C2787,866 2787,866 2787,1005 C2787,1051.396 1284.55,1082.346 985.43,1088.048 " fill="none" id="Document-Reconciliation" style="stroke: #A80036; stroke-width: 1.0;"/><polygon fill="#A80036" points="980.267,1088.146,989.3408,1091.9756,985.2661,1088.0517,989.19,1083.977,980.267,1088.146" style="stroke: #A80036; stroke-width: 1.0;"/><text fill="#000000" font-family="sans-serif" font-size="13" lengthAdjust="spacingAndGlyphs" textLength="87" x="2818" y="667.0669">Reconciliation</text><text fill="#000000" font-family="sans-serif" font-size="13" lengthAdjust="spacingAndGlyphs" textLength="7" x="988.7777" y="1082.4474">*</text><!--link Document to LetterOfCredit--><path d="M1890.49,137.43 C2154.17,159.08 2745,217.16 2745,303 C2745,303 2745,303 2745,460 C2745,550.698 2716,571.302 2716,662 C2716,662 2716,662 2716,919 C2716,1008.052 1277.35,1004.891 985.337,1003.332 " fill="none" id="Document-LetterOfCredit" style="stroke: #A80036; stroke-width: 1.0;"/><polygon fill="#A80036" points="980.293,1003.304,989.2712,1007.3528,985.2929,1003.3311,989.3146,999.3529,980.293,1003.304" style="stroke: #A80036; stroke-width: 1.0;"/><text fill="#000000" font-family="sans-serif" font-size="13" lengthAdjust="spacingAndGlyphs" textLength="90" x="2722" y="616.0669">LetterOfCredit</text><text fill="#000000" font-family="sans-serif" font-size="13" lengthAdjust="spacingAndGlyphs" textLength="8" x="988.8941" y="997.8044">1</text><!--link Document to DocumentPartyRole--><path d="M1890.35,139.19 C2139.03,163.23 2674,224.13 2674,303 C2674,303 2674,303 2674,460 C2674,503.292 2651.9,509.855 2642,552 C2630.73,599.978 2628,612.717 2628,662 C2628,662 2628,662 2628,817 C2628,900.775 1305.07,914.536 984.39,916.641 " fill="none" id="Document-DocumentPartyRole" style="stroke: #A80036; stroke-width: 1.0;"/><polygon fill="#A80036" points="979.283,916.674,988.308,920.6174,984.2829,916.6426,988.2577,912.6175,979.283,916.674" style="stroke: #A80036; stroke-width: 1.0;"/><text fill="#000000" font-family="sans-serif" font-size="13" lengthAdjust="spacingAndGlyphs" textLength="60" x="2643" y="565.0669">PartyRole</text><text fill="#000000" font-family="sans-serif" font-size="13" lengthAdjust="spacingAndGlyphs" textLength="7" x="987.9357" y="911.4924">*</text><!--link Document to Transport--><path d="M1890.46,130.05 C2113.22,137.13 2557,168.15 2557,303 C2557,303 2557,303 2557,664 C2557,713.018 2599.23,738.911 2565,774 C2535.94,803.795 1199.72,813.283 953.709,814.779 " fill="none" id="Document-Transport" style="stroke: #A80036; stroke-width: 1.0;"/><polygon fill="#A80036" points="948.443,814.811,957.4668,818.7569,953.4429,814.781,957.4188,810.7571,948.443,814.811" style="stroke: #A80036; stroke-width: 1.0;"/><text fill="#000000" font-family="sans-serif" font-size="13" lengthAdjust="spacingAndGlyphs" textLength="61" x="2558" y="514.0669">Transport</text><text fill="#000000" font-family="sans-serif" font-size="13" lengthAdjust="spacingAndGlyphs" textLength="8" x="956.579" y="808.7764">1</text><!--link Document to Guarantee--><path d="M1890.27,137.44 C2031.14,151.03 2247.78,181.65 2298,244 C2347.07,304.92 2311.25,342.908 2298,420 C2284.59,498.032 2262.05,627.878 2199,672 C2148.13,707.597 1195.22,712.305 983.458,712.912 " fill="none" id="Document-Guarantee" style="stroke: #A80036; stroke-width: 1.0;"/><polygon fill="#A80036" points="978.298,712.927,987.3083,716.9038,983.298,712.9141,987.2877,708.9039,978.298,712.927" style="stroke: #A80036; stroke-width: 1.0;"/><text fill="#000000" font-family="sans-serif" font-size="13" lengthAdjust="spacingAndGlyphs" textLength="68" x="2293" y="463.0669">Guarantee</text><text fill="#000000" font-family="sans-serif" font-size="13" lengthAdjust="spacingAndGlyphs" textLength="7" x="986.9491" y="706.9177">*</text><!--link Document to GenericIdentification--><path d="M1890.48,159.81 C2013.81,197.69 2175.18,268.32 2107,366 C1975.1,554.969 1211.03,599.342 969.891,608.704 " fill="none" id="Document-GenericIdentification" style="stroke: #A80036; stroke-width: 1.0;"/><polygon fill="#A80036" points="964.64,608.905,973.7866,612.5575,969.6363,608.7135,973.4802,604.5633,964.64,608.905" style="stroke: #A80036; stroke-width: 1.0;"/><text fill="#000000" font-family="sans-serif" font-size="13" lengthAdjust="spacingAndGlyphs" textLength="148" x="2080" y="412.0669">DocumentIdentification</text><text fill="#000000" font-family="sans-serif" font-size="13" lengthAdjust="spacingAndGlyphs" textLength="8" x="972.8945" y="603.6407">1</text><!--link Document to Evidence--><path d="M1890.48,166.79 C1992.33,204.88 2110.2,267.67 2048,340 C1903.44,508.099 1142.51,511.068 967.785,509.492 " fill="none" id="Document-Evidence" style="stroke: #A80036; stroke-width: 1.0;"/><polygon fill="#A80036" points="962.544,509.442,971.5047,513.5292,967.5438,509.4906,971.5824,505.5296,962.544,509.442" style="stroke: #A80036; stroke-width: 1.0;"/><text fill="#000000" font-family="sans-serif" font-size="13" lengthAdjust="spacingAndGlyphs" textLength="57" x="2040" y="361.0669">Evidence</text><text fill="#000000" font-family="sans-serif" font-size="13" lengthAdjust="spacingAndGlyphs" textLength="7" x="971.559" y="503.0966">*</text><!--link Document to CommercialTrade--><path d="M1876.94,213.61 C1916.76,254.3 1943.92,302.18 1908,340 C1866.4,383.805 882.307,392.423 822,396 C788.474,397.989 751.112,400.474 720.527,402.578 " fill="none" id="Document-CommercialTrade" style="stroke: #A80036; stroke-width: 1.0;"/><polygon fill="#A80036" points="715.289,402.94,724.5431,406.3107,720.2771,402.5956,723.9921,398.3297,715.289,402.94" style="stroke: #A80036; stroke-width: 1.0;"/><text fill="#000000" font-family="sans-serif" font-size="13" lengthAdjust="spacingAndGlyphs" textLength="113" x="1925" y="308.0669">CommercialTrade</text><text fill="#000000" font-family="sans-serif" font-size="13" lengthAdjust="spacingAndGlyphs" textLength="7" x="723.0776" y="397.28">*</text><!--link Document to Presentation--><path d="M1890.42,139.14 C2036.24,154.61 2266.13,187.3 2330,244 C2405.69,311.187 2391.15,368.818 2371,468 C2366.58,489.761 2332,537.794 2332,560 C2332,560 2332,560 2332,715 C2332,796.705 945.123,794.261 864,804 C859.93,804.489 855.72,805.075 851.503,805.72 " fill="none" id="Document-Presentation" style="stroke: #A80036; stroke-width: 1.0;"/><polygon fill="#A80036" points="846.557,806.502,856.0715,809.0463,851.4956,805.7206,854.8213,801.1446,846.557,806.502" style="stroke: #A80036; stroke-width: 1.0;"/><text fill="#000000" font-family="sans-serif" font-size="13" lengthAdjust="spacingAndGlyphs" textLength="81" x="2358" y="514.0669">Presentation</text><text fill="#000000" font-family="sans-serif" font-size="13" lengthAdjust="spacingAndGlyphs" textLength="24" x="854.6802" y="799.9375">0..1</text><!--link Document to RegisteredContract--><path d="M1890.29,152.8 C2063.61,192.99 2345.27,282.03 2238,420 C2194.91,475.427 1155.88,654.034 875.286,701.387 " fill="none" id="Document-RegisteredContract" style="stroke: #A80036; stroke-width: 1.0;"/><polygon fill="#A80036" points="870.002,702.279,879.5419,704.7266,874.9324,701.4475,878.2115,696.838,870.002,702.279" style="stroke: #A80036; stroke-width: 1.0;"/><text fill="#000000" font-family="sans-serif" font-size="13" lengthAdjust="spacingAndGlyphs" textLength="103" x="2164" y="463.0669">RelatedContract</text><text fill="#000000" font-family="sans-serif" font-size="13" lengthAdjust="spacingAndGlyphs" textLength="8" x="877.8647" y="696.0173">1</text><!--link InsuranceCertificate to Location--><path d="M1271.09,316.091 C1287.47,324.48 1311.49,335.327 1334,340 C1418.1,357.46 2022.4,333.152 2107,348 C2241.98,371.691 2281.6,377.654 2398,450 C2495.69,510.717 2453.23,587.26 2531,672 C2588.13,734.25 2858,781.507 2858,866 C2858,866 2858,866 2858,1091 C2858,1150.302 879.906,1171.848 591.826,1174.672 " fill="none" id="InsuranceCertificate-Location" style="stroke: #A80036; stroke-width: 1.0;"/><polygon fill="#A80036" points="586.512,1174.724,595.5504,1178.6364,591.5118,1174.6754,595.4727,1170.6368,586.512,1174.724" style="stroke: #A80036; stroke-width: 1.0;"/><text fill="#000000" font-family="sans-serif" font-size="13" lengthAdjust="spacingAndGlyphs" textLength="107" x="2747" y="769.0669">ClaimsPayableAt</text><text fill="#000000" font-family="sans-serif" font-size="13" lengthAdjust="spacingAndGlyphs" textLength="8" x="594.6196" y="1188.328">1</text><!--link ContactPoint to GenericIdentification--><path d="M708.04,139.05 C748.147,155.44 818.269,190.19 854,244 C868.756,266.22 865,276.33 865,303 C865,303 865,303 865,511 C865,542.088 879.202,576.136 888.684,595.403 " fill="none" id="ContactPoint-GenericIdentification" style="stroke: #A80036; stroke-width: 1.0;"/><polygon fill="#A80036" points="890.981,599.973,890.5124,590.1353,888.7352,595.5057,883.3648,593.7285,890.981,599.973" style="stroke: #A80036; stroke-width: 1.0;"/><text fill="#000000" font-family="sans-serif" font-size="13" lengthAdjust="spacingAndGlyphs" textLength="81" x="866" y="412.0669">Identification</text><text fill="#000000" font-family="sans-serif" font-size="13" lengthAdjust="spacingAndGlyphs" textLength="8" x="878.1073" y="589.0119">1</text><!--link ContactPoint to ContactPoint--><path d="M691.417,114.8 C718.637,96.23 756,100.3 756,127 C756,152.24 722.612,157.26 695.966,142.05 " fill="none" id="ContactPoint-ContactPoint" style="stroke: #A80036; stroke-width: 1.0;"/><polygon fill="#A80036" points="691.417,139.2,696.9315,147.3603,695.6578,141.8487,701.1694,140.575,691.417,139.2" style="stroke: #A80036; stroke-width: 1.0;"/><text fill="#000000" font-family="sans-serif" font-size="13" lengthAdjust="spacingAndGlyphs" textLength="80" x="762" y="131.0669">MainContact</text><text fill="#000000" font-family="sans-serif" font-size="13" lengthAdjust="spacingAndGlyphs" textLength="8" x="685.6328" y="159.0561">1</text><!--link PaymentObligation to CommercialTrade--><path d="M658,316.306 C658,334.399 658,369.936 658,390.75 " fill="none" id="PaymentObligation-CommercialTrade" style="stroke: #A80036; stroke-width: 1.0;"/><polygon fill="#A80036" points="658,395.954,662,386.954,658,390.954,654,386.954,658,395.954" style="stroke: #A80036; stroke-width: 1.0;"/><text fill="#000000" font-family="sans-serif" font-size="13" lengthAdjust="spacingAndGlyphs" textLength="113" x="659" y="361.0669">CommercialTrade</text><text fill="#000000" font-family="sans-serif" font-size="13" lengthAdjust="spacingAndGlyphs" textLength="8" x="647.2813" y="384.9864">1</text><!--link Agreement to CommercialTrade--><path d="M160.733,1252.1911 C124.855,1241.2314 76,1218.6592 76,1177 C76,960 76,960 76,960 C76,896.42 80,880.58 80,817 C80,509 80,509 80,509 C80,449.569 142.772,466.031 200,450 C272.739,429.624 488.222,416.968 595.654,411.753 " fill="none" id="Agreement-CommercialTrade" style="stroke: #A80036; stroke-width: 1.0;"/><polygon fill="#A80036" points="600.687,411.51,591.5054,407.9466,595.6928,411.75,591.8894,415.9374,600.687,411.51" style="stroke: #A80036; stroke-width: 1.0;"/><text fill="#000000" font-family="sans-serif" font-size="13" lengthAdjust="spacingAndGlyphs" textLength="36" x="81" y="871.0669">Trade</text><text fill="#000000" font-family="sans-serif" font-size="13" lengthAdjust="spacingAndGlyphs" textLength="8" x="584.8715" y="407.0401">1</text><!--link Location to Transport--><path d="M583.811,1163.913 C610.654,1150.817 648,1126.261 648,1091 C648,917 648,917 648,917 C648,892.891 802.638,847.561 876.546,827.272 " fill="none" id="Location-Transport" style="stroke: #A80036; stroke-width: 1.0;"/><polygon fill="#A80036" points="881.724,825.855,871.9877,824.3701,876.901,827.1736,874.0975,832.0869,881.724,825.855" style="stroke: #A80036; stroke-width: 1.0;"/><text fill="#000000" font-family="sans-serif" font-size="13" lengthAdjust="spacingAndGlyphs" textLength="201" x="649" y="1008.0669">DepartureTransportParameters</text><text fill="#000000" font-family="sans-serif" font-size="13" lengthAdjust="spacingAndGlyphs" textLength="24" x="854.7467" y="842.1391">0..1</text><!--link Location to Transport--><path d="M527.476,1172.087 C431.147,1161.311 136.385,1117.611 211,992 C274.584,884.959 337.565,893.156 457,858 C630.573,806.908 683.862,853.448 863,828 C867.428,827.371 872.043,826.586 876.616,825.726 " fill="none" id="Location-Transport" style="stroke: #A80036; stroke-width: 1.0;"/><polygon fill="#A80036" points="881.551,824.768,871.9537,822.5564,876.6426,825.7208,873.4782,830.4098,881.551,824.768" style="stroke: #A80036; stroke-width: 1.0;"/><text fill="#000000" font-family="sans-serif" font-size="13" lengthAdjust="spacingAndGlyphs" textLength="209" x="212" y="1008.0669">DestinationTransportParameters</text><text fill="#000000" font-family="sans-serif" font-size="13" lengthAdjust="spacingAndGlyphs" textLength="24" x="854.7145" y="820.9208">0..1</text><!--link Location to Transport--><path d="M530.189,1163.913 C503.346,1150.817 466,1126.261 466,1091 C466,917 466,917 466,917 C466,826.588 774.517,846.576 863,828 C867.443,827.067 872.1,826.087 876.723,825.111 " fill="none" id="Location-Transport" style="stroke: #A80036; stroke-width: 1.0;"/><polygon fill="#A80036" points="881.715,824.057,872.0828,822.0027,876.8229,825.09,873.7356,829.8301,881.715,824.057" style="stroke: #A80036; stroke-width: 1.0;"/><text fill="#000000" font-family="sans-serif" font-size="13" lengthAdjust="spacingAndGlyphs" textLength="109" x="467" y="1008.0669">RelatedTransport</text><text fill="#000000" font-family="sans-serif" font-size="13" lengthAdjust="spacingAndGlyphs" textLength="8" x="865.8399" y="844.5299">1</text><!--link Location to GenericIdentification--><path d="M527.658,1172.558 C453.4,1165.802 260.678,1144.486 215,1102 C149.555,1041.129 120.036,980.107 170,906 C320.362,682.982 671.923,629.68 824.359,616.968 " fill="none" id="Location-GenericIdentification" style="stroke: #A80036; stroke-width: 1.0;"/><polygon fill="#A80036" points="829.697,616.533,820.4021,613.2766,824.7135,616.9388,821.0513,621.2502,829.697,616.533" style="stroke: #A80036; stroke-width: 1.0;"/><text fill="#000000" font-family="sans-serif" font-size="13" lengthAdjust="spacingAndGlyphs" textLength="81" x="171" y="922.0669">Identification</text><text fill="#000000" font-family="sans-serif" font-size="13" lengthAdjust="spacingAndGlyphs" textLength="7" x="814.8294" y="612.2296">*</text><!--link GenericIdentification to RegisteredContract--><path d="M846.808,624.091 C831.03,630.196 815.311,639.592 806,654 C797.925,666.496 799.013,683.805 801.466,696.443 " fill="none" id="GenericIdentification-RegisteredContract" style="stroke: #A80036; stroke-width: 1.0;"/><polygon fill="#A80036" points="802.578,701.546,804.5707,691.9008,801.5138,696.6606,796.7541,693.6036,802.578,701.546" style="stroke: #A80036; stroke-width: 1.0;"/><text fill="#000000" font-family="sans-serif" font-size="13" lengthAdjust="spacingAndGlyphs" textLength="113" x="807" y="667.0669">RelatedCertificate</text><text fill="#000000" font-family="sans-serif" font-size="13" lengthAdjust="spacingAndGlyphs" textLength="8" x="790.8935" y="690.96">1</text></g></svg>