<?xml version="1.0" encoding="UTF-8" standalone="no"?><svg xmlns="http://www.w3.org/2000/svg" xmlns:xlink="http://www.w3.org/1999/xlink" contentScriptType="application/ecmascript" contentStyleType="text/css" height="502px" preserveAspectRatio="none" style="width:1047px;height:502px;" version="1.1" viewBox="0 0 1047 502" width="1047px" zoomAndPan="magnify"><defs><filter height="300%" id="f1t2xnjv6zzeon" width="300%" x="-1" y="-1"><feGaussianBlur result="blurOut" stdDeviation="2.0"/><feColorMatrix in="blurOut" result="blurOut2" type="matrix" values="0 0 0 0 0 0 0 0 0 0 0 0 0 0 0 0 0 0 .4 0"/><feOffset dx="4.0" dy="4.0" in="blurOut2" result="blurOut3"/><feBlend in="SourceGraphic" in2="blurOut3" mode="normal"/></filter></defs><g><!--cluster ##45042--><!--cluster ##45057--><!--cluster ##45066--><!--cluster ##45069--><!--class Role--><a target="_top" xlink:actuate="onRequest" xlink:href="../Role.html" xlink:show="new" xlink:title="Role of a party in an activity." xlink:type="simple"><rect fill="#FEFEEE" filter="url(#f1t2xnjv6zzeon)" height="44.7734" id="Role" style="stroke: #A80036; stroke-width: 1.5;" width="175" x="240.061" y="40.5"/><rect fill="#FEFEEE" height="23.9688" style="stroke: #A80036; stroke-width: 1.5;" width="175" x="240.061" y="40.5"/><text fill="#000000" font-family="sans-serif" font-size="12" lengthAdjust="spacingAndGlyphs" textLength="27" x="314.061" y="56.6387">Role</text><line style="stroke: #A80036; stroke-width: 1.5;" x1="241.061" x2="414.061" y1="64.4688" y2="64.4688"/><ellipse cx="251.061" cy="76.3711" fill="#84BE84" rx="3" ry="3" style="stroke: #038048; stroke-width: 1.0;"/><text fill="#000000" font-family="sans-serif" font-size="11" lengthAdjust="spacingAndGlyphs" textLength="53" x="260.061" y="78.6792">PartyRole</text><text fill="#000000" font-family="sans-serif" font-size="11" font-style="italic" lengthAdjust="spacingAndGlyphs" textLength="92" x="317.061" y="78.6792">(PartyRoleCode)</text></a><!--class InvoicePartyRole--><a target="_top" xlink:actuate="onRequest" xlink:href="../InvoicePartyRole.html" xlink:show="new" xlink:title="Role played by a party in the context of an invoice." xlink:type="simple"><rect fill="#FEFEEE" filter="url(#f1t2xnjv6zzeon)" height="23.9688" id="InvoicePartyRole" style="stroke: #A80036; stroke-width: 1.5;" width="108" x="273.311" y="166"/><rect fill="#FEFEEE" height="23.9688" style="stroke: #A80036; stroke-width: 1.5;" width="108" x="273.311" y="166"/><text fill="#000000" font-family="sans-serif" font-size="12" lengthAdjust="spacingAndGlyphs" textLength="102" x="276.311" y="182.1387">InvoicePartyRole</text></a><!--class InvoiceFinancingPartyRole--><a target="_top" xlink:actuate="onRequest" xlink:href="../InvoiceFinancingPartyRole.html" xlink:show="new" xlink:title="Role played by a party in the context of financing an invoice." xlink:type="simple"><rect fill="#FEFECE" filter="url(#f1t2xnjv6zzeon)" height="23.9688" id="InvoiceFinancingPartyRole" style="stroke: #A80036; stroke-width: 1.5;" width="168" x="164.811" y="272"/><rect fill="#FEFECE" height="23.9688" style="stroke: #A80036; stroke-width: 1.5;" width="168" x="164.811" y="272"/><text fill="#000000" font-family="sans-serif" font-size="12" lengthAdjust="spacingAndGlyphs" textLength="162" x="167.811" y="288.1387">InvoiceFinancingPartyRole</text></a><!--class FirstAgentRole--><a target="_top" xlink:actuate="onRequest" xlink:href="../FirstAgentRole.html" xlink:show="new" xlink:title="Organisation offering invoice financing services. " xlink:type="simple"><rect fill="#FEFEEE" filter="url(#f1t2xnjv6zzeon)" height="23.9688" id="FirstAgentRole" style="stroke: #A80036; stroke-width: 1.5;" width="97" x="126.061" y="380"/><rect fill="#FEFEEE" height="23.9688" style="stroke: #A80036; stroke-width: 1.5;" width="97" x="126.061" y="380"/><text fill="#000000" font-family="sans-serif" font-size="12" lengthAdjust="spacingAndGlyphs" textLength="91" x="129.061" y="396.1387">FirstAgentRole</text></a><!--class FinancingRequestorRole--><a target="_top" xlink:actuate="onRequest" xlink:href="../FinancingRequestorRole.html" xlink:show="new" xlink:title="Credit party that requests the invoice financing, on behalf of creditor." xlink:type="simple"><rect fill="#FEFEEE" filter="url(#f1t2xnjv6zzeon)" height="23.9688" id="FinancingRequestorRole" style="stroke: #A80036; stroke-width: 1.5;" width="158" x="257.811" y="380"/><rect fill="#FEFEEE" height="23.9688" style="stroke: #A80036; stroke-width: 1.5;" width="158" x="257.811" y="380"/><text fill="#000000" font-family="sans-serif" font-size="12" lengthAdjust="spacingAndGlyphs" textLength="152" x="260.811" y="396.1387">FinancingRequestorRole</text></a><!--class RolePlayer--><a target="_top" xlink:actuate="onRequest" xlink:href="../RolePlayer.html" xlink:show="new" xlink:title="Type of entity that plays a specific role in a specific context." xlink:type="simple"><rect fill="#EEEEEE" filter="url(#f1t2xnjv6zzeon)" height="23.9688" id="RolePlayer" style="stroke: #A80036; stroke-width: 1.5;" width="71" x="858.061" y="468"/><rect fill="#EEEEEE" height="23.9688" style="stroke: #A80036; stroke-width: 1.5;" width="71" x="858.061" y="468"/><text fill="#000000" font-family="sans-serif" font-size="12" lengthAdjust="spacingAndGlyphs" textLength="65" x="861.061" y="484.1387">RolePlayer</text></a><!--class ContactPersonRole--><a target="_top" xlink:actuate="onRequest" xlink:href="../ContactPersonRole.html" xlink:show="new" xlink:title="Person to be contacted in a given organisation. In the corporate action domain (including meeting notifications) , it is the contact person at the party organising the meeting, at the issuer or at an intermediary." xlink:type="simple"><rect fill="#EEEEEE" filter="url(#f1t2xnjv6zzeon)" height="23.9688" id="ContactPersonRole" style="stroke: #A80036; stroke-width: 1.5;" width="126" x="850.311" y="380"/><rect fill="#EEEEEE" height="23.9688" style="stroke: #A80036; stroke-width: 1.5;" width="126" x="850.311" y="380"/><text fill="#000000" font-family="sans-serif" font-size="12" lengthAdjust="spacingAndGlyphs" textLength="120" x="853.311" y="396.1387">ContactPersonRole</text></a><!--class CounterpartyRisk--><a target="_top" xlink:actuate="onRequest" xlink:href="../CounterpartyRisk.html" xlink:show="new" xlink:title="Calculation of the exposure amount that one party has vis-a-vis one counterparty or a central system, based on its credit risk." xlink:type="simple"><rect fill="#EEEEEE" filter="url(#f1t2xnjv6zzeon)" height="23.9688" id="CounterpartyRisk" style="stroke: #A80036; stroke-width: 1.5;" width="113" x="863.061" y="272"/><rect fill="#EEEEEE" height="23.9688" style="stroke: #A80036; stroke-width: 1.5;" width="113" x="863.061" y="272"/><text fill="#000000" font-family="sans-serif" font-size="12" lengthAdjust="spacingAndGlyphs" textLength="107" x="866.061" y="288.1387">CounterpartyRisk</text></a><!--class Entry--><a target="_top" xlink:actuate="onRequest" xlink:href="../Entry.html" xlink:show="new" xlink:title="Posting to an account that results in an increase or decrease to a balance." xlink:type="simple"><rect fill="#EEEEEE" filter="url(#f1t2xnjv6zzeon)" height="23.9688" id="Entry" style="stroke: #A80036; stroke-width: 1.5;" width="38" x="850.311" y="166"/><rect fill="#EEEEEE" height="23.9688" style="stroke: #A80036; stroke-width: 1.5;" width="38" x="850.311" y="166"/><text fill="#000000" font-family="sans-serif" font-size="12" lengthAdjust="spacingAndGlyphs" textLength="32" x="853.311" y="182.1387">Entry</text></a><!--class Invoice--><a target="_top" xlink:actuate="onRequest" xlink:href="../Invoice.html" xlink:show="new" xlink:title="General information about an invoice, such as number, issue date date and monetary amounts." xlink:type="simple"><rect fill="#EEEEEE" filter="url(#f1t2xnjv6zzeon)" height="23.9688" id="Invoice" style="stroke: #A80036; stroke-width: 1.5;" width="49" x="472.061" y="272"/><rect fill="#EEEEEE" height="23.9688" style="stroke: #A80036; stroke-width: 1.5;" width="49" x="472.061" y="272"/><text fill="#000000" font-family="sans-serif" font-size="12" lengthAdjust="spacingAndGlyphs" textLength="43" x="475.061" y="288.1387">Invoice</text></a><!--class CashAccount--><a target="_top" xlink:actuate="onRequest" xlink:href="../CashAccount.html" xlink:show="new" xlink:title="Account to or from which a cash entry is made." xlink:type="simple"><rect fill="#EEEEEE" filter="url(#f1t2xnjv6zzeon)" height="23.9688" id="CashAccount" style="stroke: #A80036; stroke-width: 1.5;" width="88" x="482.811" y="468"/><rect fill="#EEEEEE" height="23.9688" style="stroke: #A80036; stroke-width: 1.5;" width="88" x="482.811" y="468"/><text fill="#000000" font-family="sans-serif" font-size="12" lengthAdjust="spacingAndGlyphs" textLength="82" x="485.811" y="484.1387">CashAccount</text></a><!--class InvoiceFinancingAgreement--><a target="_top" xlink:actuate="onRequest" xlink:href="../InvoiceFinancingAgreement.html" xlink:show="new" xlink:title="Set of characteristics that unambiguously identify an invoice financing agreement. An invoice financing agreement between a factor and its client allows to transfer a payment obligation that exists between the client and a third party from the client to the factor." xlink:type="simple"><rect fill="#EEEEEE" filter="url(#f1t2xnjv6zzeon)" height="23.9688" id="InvoiceFinancingAgreement" style="stroke: #A80036; stroke-width: 1.5;" width="178" x="471.811" y="380"/><rect fill="#EEEEEE" height="23.9688" style="stroke: #A80036; stroke-width: 1.5;" width="178" x="471.811" y="380"/><text fill="#000000" font-family="sans-serif" font-size="12" lengthAdjust="spacingAndGlyphs" textLength="172" x="474.811" y="396.1387">InvoiceFinancingAgreement</text></a><!--link Role to InvoicePartyRole--><path d="M327.311,105.559 C327.311,127.159 327.311,151.898 327.311,165.865 " fill="none" id="Role-InvoicePartyRole" style="stroke: #A80036; stroke-width: 1.0;"/><polygon fill="none" points="320.311,105.52,327.311,85.52,334.311,105.52,320.311,105.52" style="stroke: #A80036; stroke-width: 1.0;"/><!--link InvoicePartyRole to InvoiceFinancingPartyRole--><path d="M306.601,206.264 C290.321,227.696 268.49,256.435 256.705,271.95 " fill="none" id="InvoicePartyRole-InvoiceFinancingPartyRole" style="stroke: #A80036; stroke-width: 1.0;"/><polygon fill="none" points="301.185,201.822,318.857,190.13,312.333,210.29,301.185,201.822" style="stroke: #A80036; stroke-width: 1.0;"/><!--link InvoiceFinancingPartyRole to FirstAgentRole--><path d="M228.912,312.789 C213.662,334.632 193.213,363.925 182.174,379.738 " fill="none" id="InvoiceFinancingPartyRole-FirstAgentRole" style="stroke: #A80036; stroke-width: 1.0;"/><polygon fill="none" points="223.204,308.736,240.392,296.344,234.683,316.75,223.204,308.736" style="stroke: #A80036; stroke-width: 1.0;"/><!--link InvoiceFinancingPartyRole to FinancingRequestorRole--><path d="M244.862,316.614 C245.17,327.337 247.267,338.894 253.311,348 C263.363,363.144 280.507,373.267 296.612,379.864 " fill="none" id="InvoiceFinancingPartyRole-FinancingRequestorRole" style="stroke: #A80036; stroke-width: 1.0;"/><polygon fill="none" points="237.899,315.816,246.133,296.291,251.871,316.689,237.899,315.816" style="stroke: #A80036; stroke-width: 1.0;"/><!--link ContactPersonRole to RolePlayer--><!--link CounterpartyRisk to ContactPersonRole--><!--link Entry to CounterpartyRisk--><!--link InvoiceFinancingAgreement to CashAccount--><!--link Role to RolePlayer--><path d="M414.644,71.891 C528.786,84.665 714.311,114.969 714.311,177 C714.311,177 714.311,177 714.311,393 C714.311,454.1213 800.153,471.8314 852.945,476.9437 " fill="none" id="Role-RolePlayer" style="stroke: #A80036; stroke-width: 1.0;"/><polygon fill="#A80036" points="857.947,477.4002,849.3476,472.599,852.9677,476.9459,848.6208,480.566,857.947,477.4002" style="stroke: #A80036; stroke-width: 1.0;"/><text fill="#000000" font-family="sans-serif" font-size="13" lengthAdjust="spacingAndGlyphs" textLength="39" x="715.311" y="288.0669">Player</text><text fill="#000000" font-family="sans-serif" font-size="13" lengthAdjust="spacingAndGlyphs" textLength="7" x="843.0524" y="471.5734">*</text><!--link Role to ContactPersonRole--><path d="M414.669,64.892 C520.509,67.668 690.825,78.103 740.311,116 C786.835,151.629 763.026,186.141 790.311,238 C811.089,277.492 817.29,287.271 845.311,322 C861.529,342.1 882.759,362.914 897.151,376.353 " fill="none" id="Role-ContactPersonRole" style="stroke: #A80036; stroke-width: 1.0;"/><polygon fill="#A80036" points="901.02,379.941,897.1398,370.8887,897.3534,376.5415,891.7006,376.7552,901.02,379.941" style="stroke: #A80036; stroke-width: 1.0;"/><text fill="#000000" font-family="sans-serif" font-size="13" lengthAdjust="spacingAndGlyphs" textLength="121" x="791.311" y="233.0669">ContactPersonRole</text><text fill="#000000" font-family="sans-serif" font-size="13" lengthAdjust="spacingAndGlyphs" textLength="8" x="886.0762" y="368.9689">1</text><!--link Role to CounterpartyRisk--><path d="M414.794,63.496 C551.638,64.129 808.813,71.455 887.311,116 C918.272,133.569 932.938,217.782 933.311,220 C936.035,236.192 931.052,254.491 926.294,267.178 " fill="none" id="Role-CounterpartyRisk" style="stroke: #A80036; stroke-width: 1.0;"/><polygon fill="#A80036" points="924.43,271.916,931.4466,265.0046,926.2601,267.263,924.0017,262.0765,924.43,271.916" style="stroke: #A80036; stroke-width: 1.0;"/><text fill="#000000" font-family="sans-serif" font-size="13" lengthAdjust="spacingAndGlyphs" textLength="109" x="926.311" y="182.0669">CounterpartyRisk</text><text fill="#000000" font-family="sans-serif" font-size="13" lengthAdjust="spacingAndGlyphs" textLength="24" x="896.635" y="260.9353">0..1</text><!--link Role to Entry--><path d="M414.565,64.888 C537.82,67.521 755.477,77.649 823.311,116 C841.362,126.205 854.52,146.694 862.031,161.101 " fill="none" id="Role-Entry" style="stroke: #A80036; stroke-width: 1.0;"/><polygon fill="#A80036" points="864.36,165.73,863.8889,155.8924,862.1131,161.2633,856.7422,159.4875,864.36,165.73" style="stroke: #A80036; stroke-width: 1.0;"/><text fill="#000000" font-family="sans-serif" font-size="13" lengthAdjust="spacingAndGlyphs" textLength="33" x="844.311" y="129.0669">Entry</text><text fill="#000000" font-family="sans-serif" font-size="13" lengthAdjust="spacingAndGlyphs" textLength="8" x="852.0637" y="154.944">1</text><!--link InvoicePartyRole to Invoice--><path d="M345.397,190.13 C376.527,209.287 440.144,248.436 473.983,269.26 " fill="none" id="InvoicePartyRole-Invoice" style="stroke: #A80036; stroke-width: 1.0;"/><polygon fill="#A80036" points="478.355,271.95,472.7856,263.8271,474.0964,269.33,468.5935,270.6409,478.355,271.95" style="stroke: #A80036; stroke-width: 1.0;"/><text fill="#000000" font-family="sans-serif" font-size="13" lengthAdjust="spacingAndGlyphs" textLength="44" x="423.311" y="233.0669">Invoice</text><text fill="#000000" font-family="sans-serif" font-size="13" lengthAdjust="spacingAndGlyphs" textLength="7" x="462.5498" y="260.981">*</text><!--link InvoiceFinancingPartyRole to CashAccount--><path d="M164.549,287.701 C114.287,294.182 53.9586,311.582 21.3113,356 C2.3598,381.784 -0.1492,404.263 21.3113,428 C51.5551,461.4519 356.337,474.0154 477.257,477.707 " fill="none" id="InvoiceFinancingPartyRole-CashAccount" style="stroke: #A80036; stroke-width: 1.0;"/><polygon fill="#A80036" points="482.527,477.8658,473.6523,473.5951,477.5293,477.7144,473.41,481.5914,482.527,477.8658" style="stroke: #A80036; stroke-width: 1.0;"/><text fill="#000000" font-family="sans-serif" font-size="13" lengthAdjust="spacingAndGlyphs" textLength="84" x="22.3113" y="396.0669">CashAccount</text><text fill="#000000" font-family="sans-serif" font-size="13" lengthAdjust="spacingAndGlyphs" textLength="7" x="467.6668" y="472.4488">*</text><!--link InvoiceFinancingPartyRole to InvoiceFinancingAgreement--><path d="M255.66,296.316 C266.04,311.192 286.521,336.751 311.311,348 C335.649,359.044 404.952,351.59 431.311,356 C462.209,361.169 496.393,370.619 521.805,378.398 " fill="none" id="InvoiceFinancingPartyRole-InvoiceFinancingAgreement" style="stroke: #A80036; stroke-width: 1.0;"/><polygon fill="#A80036" points="526.767,379.93,519.3485,373.4518,521.9897,378.4543,516.9873,381.0955,526.767,379.93" style="stroke: #A80036; stroke-width: 1.0;"/><text fill="#000000" font-family="sans-serif" font-size="13" lengthAdjust="spacingAndGlyphs" textLength="178" x="312.311" y="343.0669">InvoiceFinancingTransaction</text><text fill="#000000" font-family="sans-serif" font-size="13" lengthAdjust="spacingAndGlyphs" textLength="7" x="505.5175" y="368.9542">*</text><!--link Invoice to Invoice--><path d="M520.861,274.914 C538.17,272.059 555.311,275.088 555.311,284 C555.311,292.007 541.475,295.265 526.111,293.774 " fill="none" id="Invoice-Invoice" style="stroke: #A80036; stroke-width: 1.0;"/><polygon fill="#A80036" points="520.861,293.086,529.2662,298.2195,525.8188,293.7345,530.3038,290.287,520.861,293.086" style="stroke: #A80036; stroke-width: 1.0;"/><text fill="#000000" font-family="sans-serif" font-size="13" lengthAdjust="spacingAndGlyphs" textLength="92" x="561.311" y="288.0669">OriginalInvoice</text><text fill="#000000" font-family="sans-serif" font-size="13" lengthAdjust="spacingAndGlyphs" textLength="8" x="529.1741" y="289.3491">1</text><!--link Invoice to InvoiceFinancingAgreement--><path d="M495.965,296.042 C496.038,309.283 497.753,331.724 507.311,348 C514.189,359.711 525.534,369.556 535.966,376.857 " fill="none" id="Invoice-InvoiceFinancingAgreement" style="stroke: #A80036; stroke-width: 1.0;"/><polygon fill="#A80036" points="540.365,379.829,535.1449,371.4773,536.2213,377.0308,530.6678,378.1072,540.365,379.829" style="stroke: #A80036; stroke-width: 1.0;"/><text fill="#000000" font-family="sans-serif" font-size="13" lengthAdjust="spacingAndGlyphs" textLength="178" x="508.311" y="343.0669">InvoiceFinancingTransaction</text><text fill="#000000" font-family="sans-serif" font-size="13" lengthAdjust="spacingAndGlyphs" textLength="8" x="522.6179" y="368.8184">1</text></g></svg>