<?xml version="1.0" encoding="UTF-8" standalone="no"?><svg xmlns="http://www.w3.org/2000/svg" xmlns:xlink="http://www.w3.org/1999/xlink" contentScriptType="application/ecmascript" contentStyleType="text/css" height="502px" preserveAspectRatio="none" style="width:1159px;height:502px;" version="1.1" viewBox="0 0 1159 502" width="1159px" zoomAndPan="magnify"><defs><filter height="300%" id="fm24586peu2qj" width="300%" x="-1" y="-1"><feGaussianBlur result="blurOut" stdDeviation="2.0"/><feColorMatrix in="blurOut" result="blurOut2" type="matrix" values="0 0 0 0 0 0 0 0 0 0 0 0 0 0 0 0 0 0 .4 0"/><feOffset dx="4.0" dy="4.0" in="blurOut2" result="blurOut3"/><feBlend in="SourceGraphic" in2="blurOut3" mode="normal"/></filter></defs><g><!--cluster ##78556--><!--cluster ##78568--><!--cluster ##78577--><!--class Role--><a target="_top" xlink:actuate="onRequest" xlink:href="../Role.html" xlink:show="new" xlink:title="Role of a party in an activity." xlink:type="simple"><rect fill="#FEFEEE" filter="url(#fm24586peu2qj)" height="44.7734" id="Role" style="stroke: #A80036; stroke-width: 1.5;" width="175" x="558.75" y="40.5"/><rect fill="#FEFEEE" height="23.9688" style="stroke: #A80036; stroke-width: 1.5;" width="175" x="558.75" y="40.5"/><text fill="#000000" font-family="sans-serif" font-size="12" lengthAdjust="spacingAndGlyphs" textLength="27" x="632.75" y="56.6387">Role</text><line style="stroke: #A80036; stroke-width: 1.5;" x1="559.75" x2="732.75" y1="64.4688" y2="64.4688"/><ellipse cx="569.75" cy="76.3711" fill="#84BE84" rx="3" ry="3" style="stroke: #038048; stroke-width: 1.0;"/><text fill="#000000" font-family="sans-serif" font-size="11" lengthAdjust="spacingAndGlyphs" textLength="53" x="578.75" y="78.6792">PartyRole</text><text fill="#000000" font-family="sans-serif" font-size="11" font-style="italic" lengthAdjust="spacingAndGlyphs" textLength="92" x="635.75" y="78.6792">(PartyRoleCode)</text></a><!--class PaymentPartyRole--><a target="_top" xlink:actuate="onRequest" xlink:href="../PaymentPartyRole.html" xlink:show="new" xlink:title="Role played by a party in the context of a payment." xlink:type="simple"><rect fill="#FEFECE" filter="url(#fm24586peu2qj)" height="23.9688" id="PaymentPartyRole" style="stroke: #A80036; stroke-width: 1.5;" width="119" x="290.75" y="166"/><rect fill="#FEFECE" height="23.9688" style="stroke: #A80036; stroke-width: 1.5;" width="119" x="290.75" y="166"/><text fill="#000000" font-family="sans-serif" font-size="12" lengthAdjust="spacingAndGlyphs" textLength="113" x="293.75" y="182.1387">PaymentPartyRole</text></a><!--class CreditorRole--><a target="_top" xlink:actuate="onRequest" xlink:href="../CreditorRole.html" xlink:show="new" xlink:title="Party to which an amount of money is due." xlink:type="simple"><rect fill="#FEFEEE" filter="url(#fm24586peu2qj)" height="23.9688" id="CreditorRole" style="stroke: #A80036; stroke-width: 1.5;" width="83" x="290.75" y="270"/><rect fill="#FEFEEE" height="23.9688" style="stroke: #A80036; stroke-width: 1.5;" width="83" x="290.75" y="270"/><text fill="#000000" font-family="sans-serif" font-size="12" lengthAdjust="spacingAndGlyphs" textLength="77" x="293.75" y="286.1387">CreditorRole</text></a><!--class IntermediaryAgentRole--><a target="_top" xlink:actuate="onRequest" xlink:href="../IntermediaryAgentRole.html" xlink:show="new" xlink:title="Agent between the debtor's agent and the creditor's agent. There can be several intermediary agents specified for the execution of a payment." xlink:type="simple"><rect fill="#FEFEEE" filter="url(#fm24586peu2qj)" height="23.9688" id="IntermediaryAgentRole" style="stroke: #A80036; stroke-width: 1.5;" width="148" x="409" y="270"/><rect fill="#FEFEEE" height="23.9688" style="stroke: #A80036; stroke-width: 1.5;" width="148" x="409" y="270"/><text fill="#000000" font-family="sans-serif" font-size="12" lengthAdjust="spacingAndGlyphs" textLength="142" x="412" y="286.1387">IntermediaryAgentRole</text></a><!--class RolePlayer--><a target="_top" xlink:actuate="onRequest" xlink:href="../RolePlayer.html" xlink:show="new" xlink:title="Type of entity that plays a specific role in a specific context." xlink:type="simple"><rect fill="#EEEEEE" filter="url(#fm24586peu2qj)" height="23.9688" id="RolePlayer" style="stroke: #A80036; stroke-width: 1.5;" width="71" x="1029.75" y="468"/><rect fill="#EEEEEE" height="23.9688" style="stroke: #A80036; stroke-width: 1.5;" width="71" x="1029.75" y="468"/><text fill="#000000" font-family="sans-serif" font-size="12" lengthAdjust="spacingAndGlyphs" textLength="65" x="1032.75" y="484.1387">RolePlayer</text></a><!--class ContactPersonRole--><a target="_top" xlink:actuate="onRequest" xlink:href="../ContactPersonRole.html" xlink:show="new" xlink:title="Person to be contacted in a given organisation. In the corporate action domain (including meeting notifications) , it is the contact person at the party organising the meeting, at the issuer or at an intermediary." xlink:type="simple"><rect fill="#EEEEEE" filter="url(#fm24586peu2qj)" height="23.9688" id="ContactPersonRole" style="stroke: #A80036; stroke-width: 1.5;" width="126" x="1022" y="378"/><rect fill="#EEEEEE" height="23.9688" style="stroke: #A80036; stroke-width: 1.5;" width="126" x="1022" y="378"/><text fill="#000000" font-family="sans-serif" font-size="12" lengthAdjust="spacingAndGlyphs" textLength="120" x="1025" y="394.1387">ContactPersonRole</text></a><!--class CounterpartyRisk--><a target="_top" xlink:actuate="onRequest" xlink:href="../CounterpartyRisk.html" xlink:show="new" xlink:title="Calculation of the exposure amount that one party has vis-a-vis one counterparty or a central system, based on its credit risk." xlink:type="simple"><rect fill="#EEEEEE" filter="url(#fm24586peu2qj)" height="23.9688" id="CounterpartyRisk" style="stroke: #A80036; stroke-width: 1.5;" width="113" x="1028.75" y="270"/><rect fill="#EEEEEE" height="23.9688" style="stroke: #A80036; stroke-width: 1.5;" width="113" x="1028.75" y="270"/><text fill="#000000" font-family="sans-serif" font-size="12" lengthAdjust="spacingAndGlyphs" textLength="107" x="1031.75" y="286.1387">CounterpartyRisk</text></a><!--class Entry--><a target="_top" xlink:actuate="onRequest" xlink:href="../Entry.html" xlink:show="new" xlink:title="Posting to an account that results in an increase or decrease to a balance." xlink:type="simple"><rect fill="#EEEEEE" filter="url(#fm24586peu2qj)" height="23.9688" id="Entry" style="stroke: #A80036; stroke-width: 1.5;" width="38" x="1110" y="166"/><rect fill="#EEEEEE" height="23.9688" style="stroke: #A80036; stroke-width: 1.5;" width="38" x="1110" y="166"/><text fill="#000000" font-family="sans-serif" font-size="12" lengthAdjust="spacingAndGlyphs" textLength="32" x="1113" y="182.1387">Entry</text></a><!--class CashAccount--><a target="_top" xlink:actuate="onRequest" xlink:href="../CashAccount.html" xlink:show="new" xlink:title="Account to or from which a cash entry is made." xlink:type="simple"><rect fill="#EEEEEE" filter="url(#fm24586peu2qj)" height="23.9688" id="CashAccount" style="stroke: #A80036; stroke-width: 1.5;" width="88" x="146.5" y="270"/><rect fill="#EEEEEE" height="23.9688" style="stroke: #A80036; stroke-width: 1.5;" width="88" x="146.5" y="270"/><text fill="#000000" font-family="sans-serif" font-size="12" lengthAdjust="spacingAndGlyphs" textLength="82" x="149.5" y="286.1387">CashAccount</text></a><!--class Payment--><a target="_top" xlink:actuate="onRequest" xlink:href="../Payment.html" xlink:show="new" xlink:title="Payment information and processes required to transfer cash end to end from the debtor to the creditor." xlink:type="simple"><rect fill="#EEEEEE" filter="url(#fm24586peu2qj)" height="23.9688" id="Payment" style="stroke: #A80036; stroke-width: 1.5;" width="60" x="38.5" y="378"/><rect fill="#EEEEEE" height="23.9688" style="stroke: #A80036; stroke-width: 1.5;" width="60" x="38.5" y="378"/><text fill="#000000" font-family="sans-serif" font-size="12" lengthAdjust="spacingAndGlyphs" textLength="54" x="41.5" y="394.1387">Payment</text></a><!--link Role to PaymentPartyRole--><path d="M570.697,92.747 C508.415,116.524 423.28,149.025 379.168,165.865 " fill="none" id="Role-PaymentPartyRole" style="stroke: #A80036; stroke-width: 1.0;"/><polygon fill="none" points="568.447,86.114,589.628,85.52,573.44,99.193,568.447,86.114" style="stroke: #A80036; stroke-width: 1.0;"/><!--link PaymentPartyRole to CreditorRole--><path d="M344.482,210.267 C340.902,230.554 336.453,255.766 333.949,269.954 " fill="none" id="PaymentPartyRole-CreditorRole" style="stroke: #A80036; stroke-width: 1.0;"/><polygon fill="none" points="337.636,208.785,348.005,190.306,351.423,211.218,337.636,208.785" style="stroke: #A80036; stroke-width: 1.0;"/><!--link PaymentPartyRole to IntermediaryAgentRole--><path d="M380.606,202.472 C408.196,223.631 447.555,253.817 468.531,269.904 " fill="none" id="PaymentPartyRole-IntermediaryAgentRole" style="stroke: #A80036; stroke-width: 1.0;"/><polygon fill="none" points="376.097,207.836,364.487,190.11,384.617,196.727,376.097,207.836" style="stroke: #A80036; stroke-width: 1.0;"/><!--link ContactPersonRole to RolePlayer--><!--link CounterpartyRisk to ContactPersonRole--><!--link Entry to CounterpartyRisk--><!--link Payment to CashAccount--><!--link CashAccount to Payment--><path d="M165.429,294.116 C149.415,302.105 128.663,313.925 113,328 C98.3538,341.161 85.4558,359.776 77.2658,372.973 " fill="none" id="CashAccount-Payment" style="stroke: #A80036; stroke-width: 1.0;"/><polygon fill="#A80036" points="74.4669,377.57,82.5636,371.9626,77.067,373.2992,75.7304,367.8025,74.4669,377.57" style="stroke: #A80036; stroke-width: 1.0;"/><text fill="#000000" font-family="sans-serif" font-size="13" lengthAdjust="spacingAndGlyphs" textLength="57" x="114" y="341.0669">Payment</text><text fill="#000000" font-family="sans-serif" font-size="13" lengthAdjust="spacingAndGlyphs" textLength="8" x="65.7751" y="366.9916">1</text><!--link Role to RolePlayer--><path d="M718.988,85.548 C760.386,102.753 804,131.641 804,177 C804,177 804,177 804,391 C804,436.9392 951.025,463.4913 1024.38,473.8799 " fill="none" id="Role-RolePlayer" style="stroke: #A80036; stroke-width: 1.0;"/><polygon fill="#A80036" points="1029.53,474.6,1021.1785,469.3797,1024.5792,473.9002,1020.0587,477.3009,1029.53,474.6" style="stroke: #A80036; stroke-width: 1.0;"/><text fill="#000000" font-family="sans-serif" font-size="13" lengthAdjust="spacingAndGlyphs" textLength="39" x="805" y="286.0669">Player</text><text fill="#000000" font-family="sans-serif" font-size="13" lengthAdjust="spacingAndGlyphs" textLength="7" x="1014.8686" y="468.3783">*</text><!--link Role to ContactPersonRole--><path d="M733.256,72.588 C766.722,79.708 803.254,92.627 830,116 C874.515,154.901 846.319,191.639 883,238 C933.459,301.775 1017.03,352.493 1059.1,375.53 " fill="none" id="Role-ContactPersonRole" style="stroke: #A80036; stroke-width: 1.0;"/><polygon fill="#A80036" points="1063.53,377.938,1057.5497,370.1127,1059.1422,375.5407,1053.7141,377.1332,1063.53,377.938" style="stroke: #A80036; stroke-width: 1.0;"/><text fill="#000000" font-family="sans-serif" font-size="13" lengthAdjust="spacingAndGlyphs" textLength="121" x="884" y="233.0669">ContactPersonRole</text><text fill="#000000" font-family="sans-serif" font-size="13" lengthAdjust="spacingAndGlyphs" textLength="8" x="1045.4309" y="366.9649">1</text><!--link Role to CounterpartyRisk--><path d="M733.417,70.023 C784.542,76.359 849.036,89.354 901,116 C944.099,138.1 944.994,157.605 981,190 C1011.43,217.379 1047.5,248.687 1068.17,266.523 " fill="none" id="Role-CounterpartyRisk" style="stroke: #A80036; stroke-width: 1.0;"/><polygon fill="#A80036" points="1072.09,269.906,1067.894,260.9957,1068.3062,266.6375,1062.6644,267.0497,1072.09,269.906" style="stroke: #A80036; stroke-width: 1.0;"/><text fill="#000000" font-family="sans-serif" font-size="13" lengthAdjust="spacingAndGlyphs" textLength="109" x="982" y="182.0669">CounterpartyRisk</text><text fill="#000000" font-family="sans-serif" font-size="13" lengthAdjust="spacingAndGlyphs" textLength="24" x="1038.0975" y="258.9219">0..1</text><!--link Role to Entry--><path d="M733.571,74.345 C803.19,83.273 902.853,97.625 989,116 C1031.39,125.043 1044.16,122.751 1083,142 C1093.82,147.361 1104.63,155.414 1113.05,162.444 " fill="none" id="Role-Entry" style="stroke: #A80036; stroke-width: 1.0;"/><polygon fill="#A80036" points="1116.98,165.797,1112.7256,156.9144,1113.1749,162.5534,1107.5359,163.0027,1116.98,165.797" style="stroke: #A80036; stroke-width: 1.0;"/><text fill="#000000" font-family="sans-serif" font-size="13" lengthAdjust="spacingAndGlyphs" textLength="33" x="1065" y="129.0669">Entry</text><text fill="#000000" font-family="sans-serif" font-size="13" lengthAdjust="spacingAndGlyphs" textLength="8" x="1102.3421" y="155.0332">1</text><!--link PaymentPartyRole to CashAccount--><path d="M309.196,190.033 C288.801,196.725 264.4,206.594 245,220 C227.083,232.381 210.968,251.702 200.882,265.274 " fill="none" id="PaymentPartyRole-CashAccount" style="stroke: #A80036; stroke-width: 1.0;"/><polygon fill="#A80036" points="197.699,269.639,206.2335,264.7235,200.6448,265.5989,199.7693,260.0102,197.699,269.639" style="stroke: #A80036; stroke-width: 1.0;"/><text fill="#000000" font-family="sans-serif" font-size="13" lengthAdjust="spacingAndGlyphs" textLength="84" x="246" y="233.0669">CashAccount</text><text fill="#000000" font-family="sans-serif" font-size="13" lengthAdjust="spacingAndGlyphs" textLength="7" x="190.593" y="258.8229">*</text><!--link PaymentPartyRole to Payment--><path d="M290.731,184.574 C216.36,192.936 95.2221,211.553 68,246 C38.7284,283.041 52.9443,343.958 62.1922,372.841 " fill="none" id="PaymentPartyRole-Payment" style="stroke: #A80036; stroke-width: 1.0;"/><polygon fill="#A80036" points="63.8495,377.848,64.8209,368.0472,62.2794,373.1009,57.2256,370.5594,63.8495,377.848" style="stroke: #A80036; stroke-width: 1.0;"/><text fill="#000000" font-family="sans-serif" font-size="13" lengthAdjust="spacingAndGlyphs" textLength="57" x="69" y="286.0669">Payment</text><text fill="#000000" font-family="sans-serif" font-size="13" lengthAdjust="spacingAndGlyphs" textLength="23" x="33.954" y="366.844">1..*</text><!--link IntermediaryAgentRole to IntermediaryAgentRole--><path d="M557.126,272.329 C576.951,272.86 592,276.084 592,282 C592,287.408 579.426,290.566 562.125,291.475 " fill="none" id="IntermediaryAgentRole-IntermediaryAgentRole" style="stroke: #A80036; stroke-width: 1.0;"/><polygon fill="#A80036" points="557.126,291.671,566.2767,295.313,562.1221,291.4738,565.9613,287.3192,557.126,291.671" style="stroke: #A80036; stroke-width: 1.0;"/><text fill="#000000" font-family="sans-serif" font-size="13" lengthAdjust="spacingAndGlyphs" textLength="146" x="598" y="286.0669">IntermediaryAgentRole</text><text fill="#000000" font-family="sans-serif" font-size="13" lengthAdjust="spacingAndGlyphs" textLength="8" x="565.1827" y="287.8671">1</text><!--link Payment to Payment--><path d="M97.625,381.914 C115.333,380.117 132,382.812 132,390 C132,396.458 118.547,399.289 102.9719,398.494 " fill="none" id="Payment-Payment" style="stroke: #A80036; stroke-width: 1.0;"/><polygon fill="#A80036" points="97.625,398.086,106.2941,402.7601,102.6105,398.467,106.9036,394.7834,97.625,398.086" style="stroke: #A80036; stroke-width: 1.0;"/><text fill="#000000" font-family="sans-serif" font-size="13" lengthAdjust="spacingAndGlyphs" textLength="105" x="138" y="394.0669">OriginalPayment</text><text fill="#000000" font-family="sans-serif" font-size="13" lengthAdjust="spacingAndGlyphs" textLength="8" x="106.5273" y="394.0637">1</text></g></svg>