<?xml version="1.0" encoding="UTF-8" standalone="no"?><svg xmlns="http://www.w3.org/2000/svg" xmlns:xlink="http://www.w3.org/1999/xlink" contentScriptType="application/ecmascript" contentStyleType="text/css" height="478px" preserveAspectRatio="none" style="width:2298px;height:478px;" version="1.1" viewBox="0 0 2298 478" width="2298px" zoomAndPan="magnify"><defs><filter height="300%" id="fev5xwhkc0rj1" width="300%" x="-1" y="-1"><feGaussianBlur result="blurOut" stdDeviation="2.0"/><feColorMatrix in="blurOut" result="blurOut2" type="matrix" values="0 0 0 0 0 0 0 0 0 0 0 0 0 0 0 0 0 0 .4 0"/><feOffset dx="4.0" dy="4.0" in="blurOut2" result="blurOut3"/><feBlend in="SourceGraphic" in2="blurOut3" mode="normal"/></filter></defs><g><!--cluster ##44193--><!--cluster ##44226--><!--cluster ##44235--><!--class Role--><a target="_top" xlink:actuate="onRequest" xlink:href="../Role.html" xlink:show="new" xlink:title="Role of a party in an activity." xlink:type="simple"><rect fill="#FEFEEE" filter="url(#fev5xwhkc0rj1)" height="44.7734" id="Role" style="stroke: #A80036; stroke-width: 1.5;" width="175" x="1578.75" y="40.5"/><rect fill="#FEFEEE" height="23.9688" style="stroke: #A80036; stroke-width: 1.5;" width="175" x="1578.75" y="40.5"/><text fill="#000000" font-family="sans-serif" font-size="12" lengthAdjust="spacingAndGlyphs" textLength="27" x="1652.75" y="56.6387">Role</text><line style="stroke: #A80036; stroke-width: 1.5;" x1="1579.75" x2="1752.75" y1="64.4688" y2="64.4688"/><ellipse cx="1589.75" cy="76.3711" fill="#84BE84" rx="3" ry="3" style="stroke: #038048; stroke-width: 1.0;"/><text fill="#000000" font-family="sans-serif" font-size="11" lengthAdjust="spacingAndGlyphs" textLength="53" x="1598.75" y="78.6792">PartyRole</text><text fill="#000000" font-family="sans-serif" font-size="11" font-style="italic" lengthAdjust="spacingAndGlyphs" textLength="92" x="1655.75" y="78.6792">(PartyRoleCode)</text></a><!--class UndertakingPartyRole--><a target="_top" xlink:actuate="onRequest" xlink:href="../UndertakingPartyRole.html" xlink:show="new" xlink:title="Role played by a party in the context of an undertaking." xlink:type="simple"><rect fill="#FEFECE" filter="url(#fev5xwhkc0rj1)" height="23.9688" id="UndertakingPartyRole" style="stroke: #A80036; stroke-width: 1.5;" width="142" x="1008" y="166"/><rect fill="#FEFECE" height="23.9688" style="stroke: #A80036; stroke-width: 1.5;" width="142" x="1008" y="166"/><text fill="#000000" font-family="sans-serif" font-size="12" lengthAdjust="spacingAndGlyphs" textLength="136" x="1011" y="182.1387">UndertakingPartyRole</text></a><!--class UndertakingIssuer--><a target="_top" xlink:actuate="onRequest" xlink:href="../UndertakingIssuer.html" xlink:show="new" xlink:title="Party that issues the undertaking (or counter-undertaking)." xlink:type="simple"><rect fill="#FEFEEE" filter="url(#fev5xwhkc0rj1)" height="23.9688" id="UndertakingIssuer" style="stroke: #A80036; stroke-width: 1.5;" width="121" x="38.75" y="270"/><rect fill="#FEFEEE" height="23.9688" style="stroke: #A80036; stroke-width: 1.5;" width="121" x="38.75" y="270"/><text fill="#000000" font-family="sans-serif" font-size="12" lengthAdjust="spacingAndGlyphs" textLength="115" x="41.75" y="286.1387">UndertakingIssuer</text></a><!--class UndertakingDeliveryToParty--><a target="_top" xlink:actuate="onRequest" xlink:href="../UndertakingDeliveryToParty.html" xlink:show="new" xlink:title="Party to which the original undertaking or amendment is intended to be delivered." xlink:type="simple"><rect fill="#FEFEEE" filter="url(#fev5xwhkc0rj1)" height="23.9688" id="UndertakingDeliveryToParty" style="stroke: #A80036; stroke-width: 1.5;" width="178" x="194.5" y="270"/><rect fill="#FEFEEE" height="23.9688" style="stroke: #A80036; stroke-width: 1.5;" width="178" x="194.5" y="270"/><text fill="#000000" font-family="sans-serif" font-size="12" lengthAdjust="spacingAndGlyphs" textLength="172" x="197.5" y="286.1387">UndertakingDeliveryToParty</text></a><!--class UndertakingAdvisingParty--><a target="_top" xlink:actuate="onRequest" xlink:href="../UndertakingAdvisingParty.html" xlink:show="new" xlink:title="Party that advises the undertaking at the request of the issuer. For further clarification, reference the applicable rules to which the undertaking is subject." xlink:type="simple"><rect fill="#FEFEEE" filter="url(#fev5xwhkc0rj1)" height="23.9688" id="UndertakingAdvisingParty" style="stroke: #A80036; stroke-width: 1.5;" width="166" x="407" y="270"/><rect fill="#FEFEEE" height="23.9688" style="stroke: #A80036; stroke-width: 1.5;" width="166" x="407" y="270"/><text fill="#000000" font-family="sans-serif" font-size="12" lengthAdjust="spacingAndGlyphs" textLength="160" x="410" y="286.1387">UndertakingAdvisingParty</text></a><!--class UndertakingBeneficiary--><a target="_top" xlink:actuate="onRequest" xlink:href="../UndertakingBeneficiary.html" xlink:show="new" xlink:title="Party in whose favour the undertaking (or counter-undertaking) is issued." xlink:type="simple"><rect fill="#FEFEEE" filter="url(#fev5xwhkc0rj1)" height="23.9688" id="UndertakingBeneficiary" style="stroke: #A80036; stroke-width: 1.5;" width="151" x="608.75" y="270"/><rect fill="#FEFEEE" height="23.9688" style="stroke: #A80036; stroke-width: 1.5;" width="151" x="608.75" y="270"/><text fill="#000000" font-family="sans-serif" font-size="12" lengthAdjust="spacingAndGlyphs" textLength="145" x="611.75" y="286.1387">UndertakingBeneficiary</text></a><!--class UndertakingUltimateObligor--><a target="_top" xlink:actuate="onRequest" xlink:href="../UndertakingUltimateObligor.html" xlink:show="new" xlink:title="Party that takes responsibility for indemnifying the issuer." xlink:type="simple"><rect fill="#FEFEEE" filter="url(#fev5xwhkc0rj1)" height="23.9688" id="UndertakingUltimateObligor" style="stroke: #A80036; stroke-width: 1.5;" width="179" x="794.75" y="270"/><rect fill="#FEFEEE" height="23.9688" style="stroke: #A80036; stroke-width: 1.5;" width="179" x="794.75" y="270"/><text fill="#000000" font-family="sans-serif" font-size="12" lengthAdjust="spacingAndGlyphs" textLength="173" x="797.75" y="286.1387">UndertakingUltimateObligor</text></a><!--class UndertakingApplicant--><a target="_top" xlink:actuate="onRequest" xlink:href="../UndertakingApplicant.html" xlink:show="new" xlink:title="Party named in an undertaking as the party on whose behalf the undertaking is issued." xlink:type="simple"><rect fill="#FEFEEE" filter="url(#fev5xwhkc0rj1)" height="23.9688" id="UndertakingApplicant" style="stroke: #A80036; stroke-width: 1.5;" width="141" x="1008.75" y="270"/><rect fill="#FEFEEE" height="23.9688" style="stroke: #A80036; stroke-width: 1.5;" width="141" x="1008.75" y="270"/><text fill="#000000" font-family="sans-serif" font-size="12" lengthAdjust="spacingAndGlyphs" textLength="135" x="1011.75" y="286.1387">UndertakingApplicant</text></a><!--class UndertakingConfirmer--><a target="_top" xlink:actuate="onRequest" xlink:href="../UndertakingConfirmer.html" xlink:show="new" xlink:title="Party that adds its confirmation to the undertaking." xlink:type="simple"><rect fill="#FEFEEE" filter="url(#fev5xwhkc0rj1)" height="23.9688" id="UndertakingConfirmer" style="stroke: #A80036; stroke-width: 1.5;" width="143" x="1184.75" y="270"/><rect fill="#FEFEEE" height="23.9688" style="stroke: #A80036; stroke-width: 1.5;" width="143" x="1184.75" y="270"/><text fill="#000000" font-family="sans-serif" font-size="12" lengthAdjust="spacingAndGlyphs" textLength="137" x="1187.75" y="286.1387">UndertakingConfirmer</text></a><!--class UndertakingPresenter--><a target="_top" xlink:actuate="onRequest" xlink:href="../UndertakingPresenter.html" xlink:show="new" xlink:title="Party that makes the presentation." xlink:type="simple"><rect fill="#FEFEEE" filter="url(#fev5xwhkc0rj1)" height="23.9688" id="UndertakingPresenter" style="stroke: #A80036; stroke-width: 1.5;" width="145" x="1362.75" y="270"/><rect fill="#FEFEEE" height="23.9688" style="stroke: #A80036; stroke-width: 1.5;" width="145" x="1362.75" y="270"/><text fill="#000000" font-family="sans-serif" font-size="12" lengthAdjust="spacingAndGlyphs" textLength="139" x="1365.75" y="286.1387">UndertakingPresenter</text></a><!--class UndertakingPlaceOfPresentation--><a target="_top" xlink:actuate="onRequest" xlink:href="../UndertakingPlaceOfPresentation.html" xlink:show="new" xlink:title="Place at which the documents must be presented." xlink:type="simple"><rect fill="#FEFEEE" filter="url(#fev5xwhkc0rj1)" height="23.9688" id="UndertakingPlaceOfPresentation" style="stroke: #A80036; stroke-width: 1.5;" width="211" x="1542.75" y="270"/><rect fill="#FEFEEE" height="23.9688" style="stroke: #A80036; stroke-width: 1.5;" width="211" x="1542.75" y="270"/><text fill="#000000" font-family="sans-serif" font-size="12" lengthAdjust="spacingAndGlyphs" textLength="205" x="1545.75" y="286.1387">UndertakingPlaceOfPresentation</text></a><!--class RolePlayer--><a target="_top" xlink:actuate="onRequest" xlink:href="../RolePlayer.html" xlink:show="new" xlink:title="Type of entity that plays a specific role in a specific context." xlink:type="simple"><rect fill="#EEEEEE" filter="url(#fev5xwhkc0rj1)" height="23.9688" id="RolePlayer" style="stroke: #A80036; stroke-width: 1.5;" width="71" x="2107.75" y="444"/><rect fill="#EEEEEE" height="23.9688" style="stroke: #A80036; stroke-width: 1.5;" width="71" x="2107.75" y="444"/><text fill="#000000" font-family="sans-serif" font-size="12" lengthAdjust="spacingAndGlyphs" textLength="65" x="2110.75" y="460.1387">RolePlayer</text></a><!--class ContactPersonRole--><a target="_top" xlink:actuate="onRequest" xlink:href="../ContactPersonRole.html" xlink:show="new" xlink:title="Person to be contacted in a given organisation. In the corporate action domain (including meeting notifications) , it is the contact person at the party organising the meeting, at the issuer or at an intermediary." xlink:type="simple"><rect fill="#EEEEEE" filter="url(#fev5xwhkc0rj1)" height="23.9688" id="ContactPersonRole" style="stroke: #A80036; stroke-width: 1.5;" width="126" x="2100" y="358"/><rect fill="#EEEEEE" height="23.9688" style="stroke: #A80036; stroke-width: 1.5;" width="126" x="2100" y="358"/><text fill="#000000" font-family="sans-serif" font-size="12" lengthAdjust="spacingAndGlyphs" textLength="120" x="2103" y="374.1387">ContactPersonRole</text></a><!--class CounterpartyRisk--><a target="_top" xlink:actuate="onRequest" xlink:href="../CounterpartyRisk.html" xlink:show="new" xlink:title="Calculation of the exposure amount that one party has vis-a-vis one counterparty or a central system, based on its credit risk." xlink:type="simple"><rect fill="#EEEEEE" filter="url(#fev5xwhkc0rj1)" height="23.9688" id="CounterpartyRisk" style="stroke: #A80036; stroke-width: 1.5;" width="113" x="2112.75" y="270"/><rect fill="#EEEEEE" height="23.9688" style="stroke: #A80036; stroke-width: 1.5;" width="113" x="2112.75" y="270"/><text fill="#000000" font-family="sans-serif" font-size="12" lengthAdjust="spacingAndGlyphs" textLength="107" x="2115.75" y="286.1387">CounterpartyRisk</text></a><!--class Entry--><a target="_top" xlink:actuate="onRequest" xlink:href="../Entry.html" xlink:show="new" xlink:title="Posting to an account that results in an increase or decrease to a balance." xlink:type="simple"><rect fill="#EEEEEE" filter="url(#fev5xwhkc0rj1)" height="23.9688" id="Entry" style="stroke: #A80036; stroke-width: 1.5;" width="38" x="2100" y="166"/><rect fill="#EEEEEE" height="23.9688" style="stroke: #A80036; stroke-width: 1.5;" width="38" x="2100" y="166"/><text fill="#000000" font-family="sans-serif" font-size="12" lengthAdjust="spacingAndGlyphs" textLength="32" x="2103" y="182.1387">Entry</text></a><!--class Undertaking--><a target="_top" xlink:actuate="onRequest" xlink:href="../Undertaking.html" xlink:show="new" xlink:title="Independent undertaking, such as a demand guarantee or standby letter of credit, that provides financial assurance, to be collected on the presentation of documents that comply with its terms and conditions." xlink:type="simple"><rect fill="#EEEEEE" filter="url(#fev5xwhkc0rj1)" height="23.9688" id="Undertaking" style="stroke: #A80036; stroke-width: 1.5;" width="83" x="1810.75" y="270"/><rect fill="#EEEEEE" height="23.9688" style="stroke: #A80036; stroke-width: 1.5;" width="83" x="1810.75" y="270"/><text fill="#000000" font-family="sans-serif" font-size="12" lengthAdjust="spacingAndGlyphs" textLength="77" x="1813.75" y="286.1387">Undertaking</text></a><!--link Role to UndertakingPartyRole--><path d="M1558.79,84.638 C1434.5,108.565 1234.23,147.118 1136.44,165.942 " fill="none" id="Role-UndertakingPartyRole" style="stroke: #A80036; stroke-width: 1.0;"/><polygon fill="none" points="1557.47,77.763,1578.44,80.856,1560.12,91.511,1557.47,77.763" style="stroke: #A80036; stroke-width: 1.0;"/><!--link UndertakingPartyRole to UndertakingIssuer--><path d="M987.516,183.818 C862.917,190.614 632.924,203.99 437,220 C320.813,229.494 288.567,215.698 176,246 C155.582,251.496 133.771,261.884 118.594,269.92 " fill="none" id="UndertakingPartyRole-UndertakingIssuer" style="stroke: #A80036; stroke-width: 1.0;"/><polygon fill="none" points="987.339,176.817,1007.69,182.725,988.096,190.797,987.339,176.817" style="stroke: #A80036; stroke-width: 1.0;"/><!--link UndertakingPartyRole to UndertakingDeliveryToParty--><path d="M987.303,181.032 C854.099,185.526 599.948,199.929 389,246 C362.114,251.872 332.441,261.998 311.345,269.853 " fill="none" id="UndertakingPartyRole-UndertakingDeliveryToParty" style="stroke: #A80036; stroke-width: 1.0;"/><polygon fill="none" points="987.407,174.025,1007.62,180.392,987.848,188.018,987.407,174.025" style="stroke: #A80036; stroke-width: 1.0;"/><!--link UndertakingPartyRole to UndertakingAdvisingParty--><path d="M987.79,186.112 C889.003,195.065 727.264,213.373 591,246 C565.553,252.093 537.498,262.092 517.428,269.846 " fill="none" id="UndertakingPartyRole-UndertakingAdvisingParty" style="stroke: #A80036; stroke-width: 1.0;"/><polygon fill="none" points="987.345,179.124,1007.88,184.342,988.574,193.07,987.345,179.124" style="stroke: #A80036; stroke-width: 1.0;"/><!--link UndertakingPartyRole to UndertakingBeneficiary--><path d="M997.546,193.82 C936.308,205.744 850.65,224.091 777,246 C754.181,252.788 728.939,262.428 710.517,269.873 " fill="none" id="UndertakingPartyRole-UndertakingBeneficiary" style="stroke: #A80036; stroke-width: 1.0;"/><polygon fill="none" points="996.365,186.919,1017.33,190.027,999.002,200.669,996.365,186.919" style="stroke: #A80036; stroke-width: 1.0;"/><!--link UndertakingPartyRole to UndertakingUltimateObligor--><path d="M1039.78,199.513 C999.233,220.724 937.433,253.051 905.213,269.904 " fill="none" id="UndertakingPartyRole-UndertakingUltimateObligor" style="stroke: #A80036; stroke-width: 1.0;"/><polygon fill="none" points="1036.79,193.177,1057.76,190.11,1043.28,205.583,1036.79,193.177" style="stroke: #A80036; stroke-width: 1.0;"/><!--link UndertakingPartyRole to UndertakingApplicant--><path d="M1079,210.595 C1079,230.825 1079,255.843 1079,269.954 " fill="none" id="UndertakingPartyRole-UndertakingApplicant" style="stroke: #A80036; stroke-width: 1.0;"/><polygon fill="none" points="1072,210.306,1079,190.306,1086,210.305,1072,210.306" style="stroke: #A80036; stroke-width: 1.0;"/><!--link UndertakingPartyRole to UndertakingConfirmer--><path d="M1115.86,200.241 C1152.68,221.457 1207.83,253.242 1236.74,269.904 " fill="none" id="UndertakingPartyRole-UndertakingConfirmer" style="stroke: #A80036; stroke-width: 1.0;"/><polygon fill="none" points="1112.11,206.161,1098.28,190.11,1119.1,194.031,1112.11,206.161" style="stroke: #A80036; stroke-width: 1.0;"/><!--link UndertakingPartyRole to UndertakingPresenter--><path d="M1150.14,194.55 C1203.86,206.881 1279.17,225.419 1344,246 C1366.1,253.017 1390.61,262.547 1408.62,269.891 " fill="none" id="UndertakingPartyRole-UndertakingPresenter" style="stroke: #A80036; stroke-width: 1.0;"/><polygon fill="none" points="1148.27,201.305,1130.31,190.057,1151.36,187.651,1148.27,201.305" style="stroke: #A80036; stroke-width: 1.0;"/><!--link UndertakingPartyRole to UndertakingPlaceOfPresentation--><path d="M1169.88,189.287 C1260.24,200.311 1402.53,219.822 1524,246 C1554.5,252.574 1588.58,262.376 1613.28,269.937 " fill="none" id="UndertakingPartyRole-UndertakingPlaceOfPresentation" style="stroke: #A80036; stroke-width: 1.0;"/><polygon fill="none" points="1169.04,196.237,1150.02,186.899,1170.71,182.337,1169.04,196.237" style="stroke: #A80036; stroke-width: 1.0;"/><!--link ContactPersonRole to RolePlayer--><!--link CounterpartyRisk to ContactPersonRole--><!--link Entry to CounterpartyRisk--><!--link Role to RolePlayer--><path d="M1753.4,79.63 C1841.33,97.912 1964,131.56 1964,177 C1964,177 1964,177 1964,371 C1964,431.8572 2049.84,448.7099 2102.63,453.3199 " fill="none" id="Role-RolePlayer" style="stroke: #A80036; stroke-width: 1.0;"/><polygon fill="#A80036" points="2107.64,453.7288,2098.9889,449.0215,2102.656,453.3288,2098.3488,456.9959,2107.64,453.7288" style="stroke: #A80036; stroke-width: 1.0;"/><text fill="#000000" font-family="sans-serif" font-size="13" lengthAdjust="spacingAndGlyphs" textLength="39" x="1965" y="286.0669">Player</text><text fill="#000000" font-family="sans-serif" font-size="13" lengthAdjust="spacingAndGlyphs" textLength="7" x="2092.7461" y="447.9585">*</text><!--link Role to ContactPersonRole--><path d="M1753.45,68.506 C1836.66,74.448 1954.29,87.681 1990,116 C2035.91,152.412 2012.13,186.452 2040,238 C2060.52,275.956 2065.13,286.868 2095,318 C2108.7,332.281 2126.71,345.597 2140.76,355.039 " fill="none" id="Role-ContactPersonRole" style="stroke: #A80036; stroke-width: 1.0;"/><polygon fill="#A80036" points="2144.98,357.842,2139.7024,349.5265,2140.8171,355.0725,2135.2712,356.1871,2144.98,357.842" style="stroke: #A80036; stroke-width: 1.0;"/><text fill="#000000" font-family="sans-serif" font-size="13" lengthAdjust="spacingAndGlyphs" textLength="121" x="2041" y="233.0669">ContactPersonRole</text><text fill="#000000" font-family="sans-serif" font-size="13" lengthAdjust="spacingAndGlyphs" textLength="8" x="2128.0669" y="346.8359">1</text><!--link Role to CounterpartyRisk--><path d="M1753.38,65.336 C1871.25,68.534 2073.73,79.364 2137,116 C2168.03,133.965 2182.8,218.796 2183,220 C2185.59,235.376 2180.87,252.681 2176.23,264.921 " fill="none" id="Role-CounterpartyRisk" style="stroke: #A80036; stroke-width: 1.0;"/><polygon fill="#A80036" points="2174.27,269.837,2181.3228,262.9625,2176.1245,265.1936,2173.8934,259.9953,2174.27,269.837" style="stroke: #A80036; stroke-width: 1.0;"/><text fill="#000000" font-family="sans-serif" font-size="13" lengthAdjust="spacingAndGlyphs" textLength="109" x="2177" y="182.0669">CounterpartyRisk</text><text fill="#000000" font-family="sans-serif" font-size="13" lengthAdjust="spacingAndGlyphs" textLength="24" x="2146.5269" y="258.8292">0..1</text><!--link Role to Entry--><path d="M1753.39,67.28 C1856.42,72.496 2020.32,85.427 2073,116 C2090.93,126.409 2104.12,146.852 2111.67,161.193 " fill="none" id="Role-Entry" style="stroke: #A80036; stroke-width: 1.0;"/><polygon fill="#A80036" points="2114.01,165.8,2113.4949,155.9646,2111.7431,161.3434,2106.3644,159.5916,2114.01,165.8" style="stroke: #A80036; stroke-width: 1.0;"/><text fill="#000000" font-family="sans-serif" font-size="13" lengthAdjust="spacingAndGlyphs" textLength="33" x="2094" y="129.0669">Entry</text><text fill="#000000" font-family="sans-serif" font-size="13" lengthAdjust="spacingAndGlyphs" textLength="8" x="2101.7008" y="155.0372">1</text><!--link UndertakingPartyRole to Undertaking--><path d="M1150.11,178.776 C1276.76,179.938 1548.85,189.522 1770,246 C1789.57,250.998 1810.5,259.996 1826.31,267.616 " fill="none" id="UndertakingPartyRole-Undertaking" style="stroke: #A80036; stroke-width: 1.0;"/><polygon fill="#A80036" points="1831.05,269.931,1824.7067,262.3969,1826.5538,267.7437,1821.207,269.5907,1831.05,269.931" style="stroke: #A80036; stroke-width: 1.0;"/><text fill="#000000" font-family="sans-serif" font-size="13" lengthAdjust="spacingAndGlyphs" textLength="78" x="1735" y="233.0669">Undertaking</text><text fill="#000000" font-family="sans-serif" font-size="13" lengthAdjust="spacingAndGlyphs" textLength="8" x="1813.0438" y="258.9555">1</text></g></svg>